<svg width="250" height="192" viewBox="0 0 250 192" fill="none" xmlns="http://www.w3.org/2000/svg">
<g clip-path="url(#clip0_118_1048)">
<path d="M103.021 3.83777H43.0672C40.5141 3.83777 38.4443 5.90392 38.4443 8.45264V29.9251C38.4443 32.4739 40.5141 34.54 43.0672 34.54H103.021C105.575 34.54 107.644 32.4739 107.644 29.9251V8.45264C107.644 5.90392 105.575 3.83777 103.021 3.83777Z" fill="#FFE9AD" stroke="white" stroke-width="8" stroke-miterlimit="10"/>
<path d="M172.222 3.83777H112.267C109.714 3.83777 107.645 5.90392 107.645 8.45264V29.9251C107.645 32.4739 109.714 34.54 112.267 34.54H172.222C174.775 34.54 176.845 32.4739 176.845 29.9251V8.45264C176.845 5.90392 174.775 3.83777 172.222 3.83777Z" fill="#FFE9AD" stroke="white" stroke-width="8" stroke-miterlimit="10"/>
<path d="M68.4213 34.54H8.46712C5.91397 34.54 3.84424 36.6062 3.84424 39.1549V60.6274C3.84424 63.1761 5.91397 65.2423 8.46712 65.2423H68.4213C70.9745 65.2423 73.0442 63.1761 73.0442 60.6274V39.1549C73.0442 36.6062 70.9745 34.54 68.4213 34.54Z" fill="#FFE9AD" stroke="white" stroke-width="8" stroke-miterlimit="10"/>
<path d="M137.622 34.54H77.6673C75.1142 34.54 73.0444 36.6062 73.0444 39.1549V60.6274C73.0444 63.1761 75.1142 65.2423 77.6673 65.2423H137.622C140.175 65.2423 142.244 63.1761 142.244 60.6274V39.1549C142.244 36.6062 140.175 34.54 137.622 34.54Z" fill="#FFE9AD" stroke="white" stroke-width="8" stroke-miterlimit="10"/>
<path d="M206.822 34.54H146.868C144.314 34.54 142.245 36.6062 142.245 39.1549V60.6274C142.245 63.1761 144.314 65.2423 146.868 65.2423H206.822C209.375 65.2423 211.445 63.1761 211.445 60.6274V39.1549C211.445 36.6062 209.375 34.54 206.822 34.54Z" fill="#FFE9AD" stroke="white" stroke-width="8" stroke-miterlimit="10"/>
<path d="M68.4213 96.0555H8.46712C5.91397 96.0555 3.84424 98.1217 3.84424 100.67V122.143C3.84424 124.692 5.91397 126.758 8.46712 126.758H68.4213C70.9745 126.758 73.0442 124.692 73.0442 122.143V100.67C73.0442 98.1217 70.9745 96.0555 68.4213 96.0555Z" fill="#FFE9AD" stroke="white" stroke-width="8" stroke-miterlimit="10"/>
<path d="M137.622 96.0555H77.6673C75.1142 96.0555 73.0444 98.1217 73.0444 100.67V122.143C73.0444 124.692 75.1142 126.758 77.6673 126.758H137.622C140.175 126.758 142.244 124.692 142.244 122.143V100.67C142.244 98.1217 140.175 96.0555 137.622 96.0555Z" fill="#FFE9AD" stroke="white" stroke-width="8" stroke-miterlimit="10"/>
<path d="M206.822 96.0555H146.868C144.314 96.0555 142.245 98.1217 142.245 100.67V122.143C142.245 124.692 144.314 126.758 146.868 126.758H206.822C209.375 126.758 211.445 124.692 211.445 122.143V100.67C211.445 98.1217 209.375 96.0555 206.822 96.0555Z" fill="#FFE9AD" stroke="white" stroke-width="8" stroke-miterlimit="10"/>
<path d="M68.4213 157.46H8.46712C5.91397 157.46 3.84424 159.526 3.84424 162.075V183.547C3.84424 186.096 5.91397 188.162 8.46712 188.162H68.4213C70.9745 188.162 73.0442 186.096 73.0442 183.547V162.075C73.0442 159.526 70.9745 157.46 68.4213 157.46Z" fill="#FFE9AD" stroke="white" stroke-width="8" stroke-miterlimit="10"/>
<path d="M137.622 157.46H77.6673C75.1142 157.46 73.0444 159.526 73.0444 162.075V183.547C73.0444 186.096 75.1142 188.162 77.6673 188.162H137.622C140.175 188.162 142.244 186.096 142.244 183.547V162.075C142.244 159.526 140.175 157.46 137.622 157.46Z" fill="#FFE9AD" stroke="white" stroke-width="8" stroke-miterlimit="10"/>
<path d="M206.822 157.46H146.868C144.314 157.46 142.245 159.526 142.245 162.075V183.547C142.245 186.096 144.314 188.162 146.868 188.162H206.822C209.375 188.162 211.445 186.096 211.445 183.547V162.075C211.445 159.526 209.375 157.46 206.822 157.46Z" fill="#FFE9AD" stroke="white" stroke-width="8" stroke-miterlimit="10"/>
<path d="M103.133 65.3533H43.1785C40.6254 65.3533 38.5557 67.4194 38.5557 69.9681V91.4406C38.5557 93.9894 40.6254 96.0555 43.1785 96.0555H103.133C105.686 96.0555 107.756 93.9894 107.756 91.4406V69.9681C107.756 67.4194 105.686 65.3533 103.133 65.3533Z" fill="#FFE9AD" stroke="white" stroke-width="8" stroke-miterlimit="10"/>
<path d="M172.332 65.3533H112.378C109.825 65.3533 107.755 67.4194 107.755 69.9681V91.4406C107.755 93.9894 109.825 96.0555 112.378 96.0555H172.332C174.886 96.0555 176.955 93.9894 176.955 91.4406V69.9681C176.955 67.4194 174.886 65.3533 172.332 65.3533Z" fill="#FFE9AD" stroke="white" stroke-width="8" stroke-miterlimit="10"/>
<path d="M241.533 65.3533H181.578C179.025 65.3533 176.956 67.4194 176.956 69.9681V91.4406C176.956 93.9894 179.025 96.0555 181.578 96.0555H241.533C244.086 96.0555 246.156 93.9894 246.156 91.4406V69.9681C246.156 67.4194 244.086 65.3533 241.533 65.3533Z" fill="#FFE9AD" stroke="white" stroke-width="8" stroke-miterlimit="10"/>
<path d="M103.133 126.758H43.1785C40.6254 126.758 38.5557 128.824 38.5557 131.373V152.845C38.5557 155.394 40.6254 157.46 43.1785 157.46H103.133C105.686 157.46 107.756 155.394 107.756 152.845V131.373C107.756 128.824 105.686 126.758 103.133 126.758Z" fill="#FFE9AD" stroke="white" stroke-width="8" stroke-miterlimit="10"/>
<path d="M172.332 126.758H112.378C109.825 126.758 107.755 128.824 107.755 131.373V152.845C107.755 155.394 109.825 157.46 112.378 157.46H172.332C174.886 157.46 176.955 155.394 176.955 152.845V131.373C176.955 128.824 174.886 126.758 172.332 126.758Z" fill="#FFE9AD" stroke="white" stroke-width="8" stroke-miterlimit="10"/>
<path d="M241.533 126.758H181.578C179.025 126.758 176.956 128.824 176.956 131.373V152.845C176.956 155.394 179.025 157.46 181.578 157.46H241.533C244.086 157.46 246.156 155.394 246.156 152.845V131.373C246.156 128.824 244.086 126.758 241.533 126.758Z" fill="#FFE9AD" stroke="white" stroke-width="8" stroke-miterlimit="10"/>
</g>
<defs>
<clipPath id="clip0_118_1048">
<rect width="250" height="192" fill="white"/>
</clipPath>
</defs>
</svg>
