<svg width="673" height="896" viewBox="0 0 673 896" fill="none" xmlns="http://www.w3.org/2000/svg">
<mask id="mask0_118_518" style="mask-type:alpha" maskUnits="userSpaceOnUse" x="0" y="0" width="673" height="896">
<rect x="0.818359" width="672.182" height="896" fill="#D9D9D9"/>
</mask>
<g mask="url(#mask0_118_518)">
<path d="M684.938 436.08L684.938 248.934L479.416 248.934L479.416 306.457L356.22 436.383L355.602 437.001C344.17 448.428 344.17 466.956 355.602 478.383C367.033 489.81 385.568 489.81 397 478.383L355.058 520.307C343.285 532.076 343.285 551.156 355.058 562.924L356.206 564.072C367.979 575.84 387.067 575.84 398.84 564.072L398.84 564.072L370.463 592.437C358.69 604.206 358.69 623.286 370.463 635.054L370.937 635.527C382.71 647.295 401.798 647.295 413.571 635.527L413.571 635.527L381.304 667.78C369.531 679.549 369.531 698.629 381.304 710.397L384.902 713.994C396.675 725.762 415.763 725.762 427.536 713.994L627.937 514.426" stroke="#D9D9D9" stroke-opacity="0.3" stroke-width="23" stroke-linecap="round" stroke-linejoin="round"/>
<path d="M628.618 383.202C633.254 382.05 638.143 383.625 641.389 387.128C662.406 409.807 743.979 499.408 743.979 523.841L743.979 582.895C743.979 593.57 740.673 603.972 734.539 612.71C723.981 627.748 706.639 654.222 693.476 683.057C673.188 727.5 671.03 774.963 671.03 774.963L449.161 774.963L449.161 745.622L421.074 718.907L627.937 514.426C607.166 503.177 570.974 397.522 628.618 383.202Z" stroke="#D9D9D9" stroke-opacity="0.3" stroke-width="23" stroke-linecap="round" stroke-linejoin="round"/>
<path d="M700.996 856.758L700.996 811.066C700.996 791.127 684.826 774.963 664.878 774.963L457.192 774.963C437.244 774.963 421.074 791.127 421.074 811.066L421.074 856.758C421.074 876.697 437.244 892.861 457.192 892.861L664.878 892.861C684.826 892.861 700.996 876.697 700.996 856.758Z" stroke="#D9D9D9" stroke-opacity="0.3" stroke-width="23" stroke-linecap="round" stroke-linejoin="round"/>
<path d="M717.316 212.83L717.316 167.139C717.316 147.199 701.146 131.035 681.198 131.035L473.512 131.035C453.565 131.035 437.394 147.199 437.394 167.139L437.394 212.83C437.394 232.77 453.565 248.934 473.512 248.934L681.198 248.934C701.146 248.934 717.316 232.77 717.316 212.83Z" stroke="#D9D9D9" stroke-opacity="0.3" stroke-width="23" stroke-linecap="round" stroke-linejoin="round"/>
<path d="M632.719 189.984C632.719 200.571 641.304 209.153 651.895 209.153C662.487 209.153 671.072 200.571 671.072 189.984C671.072 179.397 662.487 170.815 651.895 170.815C641.304 170.815 632.719 179.397 632.719 189.984Z" stroke="#D9D9D9" stroke-opacity="0.3" stroke-width="23" stroke-linecap="round" stroke-linejoin="round"/>
<path d="M460.238 833.912C460.238 844.499 468.824 853.081 479.415 853.081C490.006 853.081 498.592 844.499 498.592 833.912C498.592 823.325 490.006 814.743 479.415 814.743C468.824 814.743 460.238 823.325 460.238 833.912Z" stroke="#D9D9D9" stroke-opacity="0.3" stroke-width="23" stroke-linecap="round" stroke-linejoin="round"/>
</g>
</svg>
