<?xml version="1.0" standalone="no"?>
<!DOCTYPE svg PUBLIC "-//W3C//DTD SVG 20010904//EN"
 "http://www.w3.org/TR/2001/REC-SVG-20010904/DTD/svg10.dtd">
<svg version="1.0" xmlns="http://www.w3.org/2000/svg"
 width="128.000000pt" height="128.000000pt" viewBox="0 0 128.000000 128.000000"
 preserveAspectRatio="xMidYMid meet">

<g transform="translate(0.000000,128.000000) scale(0.100000,-0.100000)"
fill="#000000" stroke="none">
<path d="M790 1028 c-25 -12 -90 -66 -145 -119 -56 -53 -115 -104 -132 -113
-40 -20 -93 -20 -157 -1 -50 15 -141 20 -170 9 -9 -3 -16 -13 -16 -21 0 -12 9
-14 48 -8 34 4 72 0 129 -14 45 -12 92 -21 105 -21 48 1 112 42 211 137 56 54
119 106 139 116 130 61 299 8 361 -115 25 -47 29 -68 29 -128 -1 -116 -49
-197 -136 -230 -14 -5 -26 -14 -26 -19 0 -21 23 -21 65 -1 93 45 141 144 133
274 -8 112 -56 190 -150 241 -46 25 -66 30 -148 33 -83 3 -101 0 -140 -20z"/>
<path d="M780 846 c0 -7 18 -26 40 -41 l41 -28 29 21 c36 27 36 27 67 3 25
-21 46 -19 76 7 15 13 19 13 35 0 27 -24 52 -29 58 -13 8 20 -45 64 -77 65
-14 0 -34 -9 -44 -20 l-18 -20 -22 20 c-28 26 -59 25 -85 -2 l-20 -22 -23 22
c-26 25 -57 29 -57 8z"/>
<path d="M76 708 c-54 -108 -26 -259 64 -349 84 -84 203 -129 342 -129 104 0
142 19 273 135 57 51 113 96 124 100 25 8 28 35 4 35 -28 0 -74 -32 -160 -113
-126 -117 -187 -140 -321 -117 -136 23 -251 100 -294 197 -31 70 -28 179 6
237 31 53 31 56 7 56 -13 0 -27 -17 -45 -52z"/>
<path d="M187 623 c-11 -10 -8 -33 3 -33 6 0 19 -9 30 -20 25 -25 50 -25 81
-1 24 19 25 19 48 0 30 -25 49 -24 78 3 l23 21 23 -21 c26 -24 57 -29 57 -9 0
15 -57 67 -75 67 -7 0 -24 -9 -39 -21 l-26 -20 -26 20 c-15 12 -32 21 -39 21
-7 0 -24 -9 -39 -21 l-26 -20 -26 20 c-28 22 -37 25 -47 14z"/>
<path d="M254 499 c-8 -14 55 -68 80 -69 11 0 30 10 43 22 l23 21 23 -21 c29
-27 47 -28 80 -2 l26 21 21 -21 c22 -22 45 -26 56 -9 7 12 -38 54 -70 65 -11
4 -29 -2 -47 -15 l-30 -22 -26 20 c-32 26 -45 26 -68 1 -10 -11 -23 -20 -30
-20 -7 0 -20 9 -30 20 -20 22 -40 26 -51 9z"/>
<path d="M935 500 c-4 -7 -3 -16 3 -22 14 -14 57 -6 57 12 0 18 -50 26 -60 10z"/>
</g>
</svg>
