<svg width="673" height="896" viewBox="0 0 673 896" fill="none" xmlns="http://www.w3.org/2000/svg">
<mask id="mask0_118_202" style="mask-type:alpha" maskUnits="userSpaceOnUse" x="0" y="0" width="673" height="896">
<rect x="0.804688" width="672.182" height="896" fill="#D9D9D9"/>
</mask>
<g mask="url(#mask0_118_202)">
<path d="M269 606.358L269 780.337C269 787.746 275.007 793.752 282.418 793.752L344.849 793.752C352.26 793.752 358.267 787.746 358.267 780.337L358.267 606.358C358.267 598.949 352.26 592.943 344.849 592.943L282.418 592.943C275.007 592.943 269 598.949 269 606.358Z" fill="white" stroke="#D9D9D9" stroke-opacity="0.3" stroke-width="23" stroke-miterlimit="10"/>
<path d="M269 405.548L269 579.527C269 586.936 275.007 592.942 282.418 592.942L344.849 592.942C352.26 592.942 358.267 586.936 358.267 579.527L358.267 405.548C358.267 398.139 352.26 392.133 344.849 392.133L282.418 392.133C275.007 392.133 269 398.139 269 405.548Z" fill="white" stroke="#D9D9D9" stroke-opacity="0.3" stroke-width="23" stroke-miterlimit="10"/>
<path d="M358.267 706.763L358.267 880.743C358.267 888.152 364.274 894.158 371.684 894.158L434.116 894.158C441.526 894.158 447.534 888.152 447.534 880.743L447.534 706.763C447.534 699.354 441.526 693.348 434.116 693.348L371.684 693.348C364.274 693.348 358.267 699.354 358.267 706.763Z" fill="white" stroke="#D9D9D9" stroke-opacity="0.3" stroke-width="23" stroke-miterlimit="10"/>
<path d="M358.267 505.953L358.267 679.933C358.267 687.342 364.274 693.348 371.684 693.348L434.116 693.348C441.526 693.348 447.534 687.342 447.534 679.933L447.534 505.953C447.534 498.544 441.526 492.538 434.116 492.538L371.684 492.538C364.274 492.538 358.267 498.544 358.267 505.953Z" fill="white" stroke="#D9D9D9" stroke-opacity="0.3" stroke-width="23" stroke-miterlimit="10"/>
<path d="M358.267 305.143L358.267 479.123C358.267 486.532 364.274 492.538 371.684 492.538L434.116 492.538C441.526 492.538 447.534 486.532 447.534 479.123L447.534 305.143C447.534 297.734 441.526 291.728 434.116 291.728L371.684 291.728C364.274 291.728 358.267 297.734 358.267 305.143Z" fill="white" stroke="#D9D9D9" stroke-opacity="0.3" stroke-width="23" stroke-miterlimit="10"/>
<path d="M537.123 706.763L537.123 880.743C537.123 888.152 543.13 894.158 550.541 894.158L612.972 894.158C620.383 894.158 626.39 888.152 626.39 880.743L626.39 706.763C626.39 699.354 620.383 693.348 612.972 693.348L550.541 693.348C543.13 693.348 537.123 699.354 537.123 706.763Z" fill="white" stroke="#D9D9D9" stroke-opacity="0.3" stroke-width="23" stroke-miterlimit="10"/>
<path d="M537.123 505.953L537.123 679.933C537.123 687.342 543.13 693.348 550.541 693.348L612.972 693.348C620.383 693.348 626.39 687.342 626.39 679.933L626.39 505.953C626.39 498.544 620.383 492.538 612.972 492.538L550.541 492.538C543.13 492.538 537.123 498.544 537.123 505.953Z" fill="white" stroke="#D9D9D9" stroke-opacity="0.3" stroke-width="23" stroke-miterlimit="10"/>
<path d="M537.123 305.143L537.123 479.123C537.123 486.532 543.13 492.538 550.541 492.538L612.972 492.538C620.383 492.538 626.39 486.532 626.39 479.123L626.39 305.143C626.39 297.734 620.383 291.728 612.972 291.728L550.541 291.728C543.13 291.728 537.123 297.734 537.123 305.143Z" fill="white" stroke="#D9D9D9" stroke-opacity="0.3" stroke-width="23" stroke-miterlimit="10"/>
<path d="M447.856 606.035L447.856 780.015C447.856 787.424 453.864 793.43 461.274 793.43L523.706 793.43C531.116 793.43 537.124 787.424 537.124 780.015L537.124 606.035C537.124 598.626 531.116 592.62 523.706 592.62L461.274 592.62C453.864 592.62 447.856 598.626 447.856 606.035Z" fill="white" stroke="#D9D9D9" stroke-opacity="0.3" stroke-width="23" stroke-miterlimit="10"/>
<path d="M447.856 405.225L447.856 579.205C447.856 586.614 453.864 592.62 461.274 592.62L523.706 592.62C531.116 592.62 537.124 586.614 537.124 579.205L537.124 405.225C537.124 397.816 531.116 391.81 523.706 391.81L461.274 391.81C453.864 391.81 447.856 397.816 447.856 405.225Z" fill="white" stroke="#D9D9D9" stroke-opacity="0.3" stroke-width="23" stroke-miterlimit="10"/>
<path d="M447.856 204.415L447.856 378.395C447.856 385.804 453.864 391.81 461.274 391.81L523.706 391.81C531.116 391.81 537.124 385.804 537.124 378.395L537.124 204.415C537.124 197.006 531.116 191 523.706 191L461.274 191C453.864 191 447.856 197.006 447.856 204.415Z" fill="white" stroke="#D9D9D9" stroke-opacity="0.3" stroke-width="23" stroke-miterlimit="10"/>
<path d="M626.392 606.035L626.392 780.015C626.392 787.424 632.399 793.43 639.809 793.43L702.241 793.43C709.651 793.43 715.659 787.424 715.659 780.015L715.659 606.035C715.659 598.626 709.651 592.62 702.241 592.62L639.809 592.62C632.399 592.62 626.392 598.626 626.392 606.035Z" fill="white" stroke="#D9D9D9" stroke-opacity="0.3" stroke-width="23" stroke-miterlimit="10"/>
<path d="M626.392 405.225L626.392 579.205C626.392 586.614 632.399 592.62 639.809 592.62L702.241 592.62C709.651 592.62 715.659 586.614 715.659 579.205L715.659 405.225C715.659 397.816 709.651 391.81 702.241 391.81L639.809 391.81C632.399 391.81 626.392 397.816 626.392 405.225Z" fill="white" stroke="#D9D9D9" stroke-opacity="0.3" stroke-width="23" stroke-miterlimit="10"/>
<path d="M626.392 204.415L626.392 378.395C626.392 385.804 632.399 391.81 639.809 391.81L702.241 391.81C709.651 391.81 715.659 385.804 715.659 378.395L715.659 204.415C715.659 197.006 709.651 191 702.241 191L639.809 191C632.399 191 626.392 197.006 626.392 204.415Z" fill="white" stroke="#D9D9D9" stroke-opacity="0.3" stroke-width="23" stroke-miterlimit="10"/>
</g>
</svg>
