<svg width="261" height="201" viewBox="0 0 261 201" fill="none" xmlns="http://www.w3.org/2000/svg">
<g clip-path="url(#clip0_118_1030)">
<path d="M107.19 4H44.8099C42.1535 4 40 6.15348 40 8.80994V31.1901C40 33.8465 42.1535 36 44.8099 36H107.19C109.847 36 112 33.8465 112 31.1901V8.80994C112 6.15348 109.847 4 107.19 4Z" fill="#81C4EF" stroke="white" stroke-width="8" stroke-miterlimit="10"/>
<path d="M179.19 4H116.81C114.153 4 112 6.15348 112 8.80994V31.1901C112 33.8465 114.153 36 116.81 36H179.19C181.847 36 184 33.8465 184 31.1901V8.80994C184 6.15348 181.847 4 179.19 4Z" fill="#81C4EF" stroke="white" stroke-width="8" stroke-miterlimit="10"/>
<path d="M71.1901 36H8.80994C6.15348 36 4 38.1535 4 40.8099V63.1901C4 65.8465 6.15348 68 8.80994 68H71.1901C73.8465 68 76 65.8465 76 63.1901V40.8099C76 38.1535 73.8465 36 71.1901 36Z" fill="#81C4EF" stroke="white" stroke-width="8" stroke-miterlimit="10"/>
<path d="M143.19 36H80.8099C78.1535 36 76 38.1535 76 40.8099V63.1901C76 65.8465 78.1535 68 80.8099 68H143.19C145.847 68 148 65.8465 148 63.1901V40.8099C148 38.1535 145.847 36 143.19 36Z" fill="#81C4EF" stroke="white" stroke-width="8" stroke-miterlimit="10"/>
<path d="M215.19 36H152.81C150.153 36 148 38.1535 148 40.8099V63.1901C148 65.8465 150.153 68 152.81 68H215.19C217.847 68 220 65.8465 220 63.1901V40.8099C220 38.1535 217.847 36 215.19 36Z" fill="#81C4EF" stroke="white" stroke-width="8" stroke-miterlimit="10"/>
<path d="M71.1901 100.116H8.80994C6.15348 100.116 4 102.269 4 104.926V127.306C4 129.962 6.15348 132.116 8.80994 132.116H71.1901C73.8465 132.116 76 129.962 76 127.306V104.926C76 102.269 73.8465 100.116 71.1901 100.116Z" fill="#81C4EF" stroke="white" stroke-width="8" stroke-miterlimit="10"/>
<path d="M143.19 100.116H80.8099C78.1535 100.116 76 102.269 76 104.926V127.306C76 129.962 78.1535 132.116 80.8099 132.116H143.19C145.847 132.116 148 129.962 148 127.306V104.926C148 102.269 145.847 100.116 143.19 100.116Z" fill="#81C4EF" stroke="white" stroke-width="8" stroke-miterlimit="10"/>
<path d="M215.19 100.116H152.81C150.153 100.116 148 102.269 148 104.926V127.306C148 129.962 150.153 132.116 152.81 132.116H215.19C217.847 132.116 220 129.962 220 127.306V104.926C220 102.269 217.847 100.116 215.19 100.116Z" fill="#81C4EF" stroke="white" stroke-width="8" stroke-miterlimit="10"/>
<path d="M71.1901 164.116H8.80994C6.15348 164.116 4 166.269 4 168.926V191.306C4 193.962 6.15348 196.116 8.80994 196.116H71.1901C73.8465 196.116 76 193.962 76 191.306V168.926C76 166.269 73.8465 164.116 71.1901 164.116Z" fill="#81C4EF" stroke="white" stroke-width="8" stroke-miterlimit="10"/>
<path d="M143.19 164.116H80.8099C78.1535 164.116 76 166.269 76 168.926V191.306C76 193.962 78.1535 196.116 80.8099 196.116H143.19C145.847 196.116 148 193.962 148 191.306V168.926C148 166.269 145.847 164.116 143.19 164.116Z" fill="#81C4EF" stroke="white" stroke-width="8" stroke-miterlimit="10"/>
<path d="M215.19 164.116H152.81C150.153 164.116 148 166.269 148 168.926V191.306C148 193.962 150.153 196.116 152.81 196.116H215.19C217.847 196.116 220 193.962 220 191.306V168.926C220 166.269 217.847 164.116 215.19 164.116Z" fill="#81C4EF" stroke="white" stroke-width="8" stroke-miterlimit="10"/>
<path d="M107.306 68.1157H44.9257C42.2692 68.1157 40.1157 70.2692 40.1157 72.9257V95.3058C40.1157 97.9622 42.2692 100.116 44.9257 100.116H107.306C109.962 100.116 112.116 97.9622 112.116 95.3058V72.9257C112.116 70.2692 109.962 68.1157 107.306 68.1157Z" fill="#81C4EF" stroke="white" stroke-width="8" stroke-miterlimit="10"/>
<path d="M179.306 68.1157H116.926C114.269 68.1157 112.116 70.2692 112.116 72.9257V95.3058C112.116 97.9622 114.269 100.116 116.926 100.116H179.306C181.962 100.116 184.116 97.9622 184.116 95.3058V72.9257C184.116 70.2692 181.962 68.1157 179.306 68.1157Z" fill="#81C4EF" stroke="white" stroke-width="8" stroke-miterlimit="10"/>
<path d="M251.306 68.1157H188.926C186.269 68.1157 184.116 70.2692 184.116 72.9257V95.3058C184.116 97.9622 186.269 100.116 188.926 100.116H251.306C253.962 100.116 256.116 97.9622 256.116 95.3058V72.9257C256.116 70.2692 253.962 68.1157 251.306 68.1157Z" fill="#81C4EF" stroke="white" stroke-width="8" stroke-miterlimit="10"/>
<path d="M107.306 132.116H44.9257C42.2692 132.116 40.1157 134.269 40.1157 136.926V159.306C40.1157 161.962 42.2692 164.116 44.9257 164.116H107.306C109.962 164.116 112.116 161.962 112.116 159.306V136.926C112.116 134.269 109.962 132.116 107.306 132.116Z" fill="#81C4EF" stroke="white" stroke-width="8" stroke-miterlimit="10"/>
<path d="M179.306 132.116H116.926C114.269 132.116 112.116 134.269 112.116 136.926V159.306C112.116 161.962 114.269 164.116 116.926 164.116H179.306C181.962 164.116 184.116 161.962 184.116 159.306V136.926C184.116 134.269 181.962 132.116 179.306 132.116Z" fill="#81C4EF" stroke="white" stroke-width="8" stroke-miterlimit="10"/>
<path d="M251.306 132.116H188.926C186.269 132.116 184.116 134.269 184.116 136.926V159.306C184.116 161.962 186.269 164.116 188.926 164.116H251.306C253.962 164.116 256.116 161.962 256.116 159.306V136.926C256.116 134.269 253.962 132.116 251.306 132.116Z" fill="#81C4EF" stroke="white" stroke-width="8" stroke-miterlimit="10"/>
</g>
<defs>
<clipPath id="clip0_118_1030">
<rect width="260.116" height="200.116" fill="white"/>
</clipPath>
</defs>
</svg>
