<svg width="351" height="183" viewBox="0 0 351 183" fill="none" xmlns="http://www.w3.org/2000/svg">
<g clip-path="url(#clip0_118_961)">
<path d="M268.732 145.591L150.568 27.1641H54.3491V121.722H80.8661L140.759 178.403L141.044 178.687C146.312 183.947 154.853 183.947 160.12 178.687C165.388 173.428 165.388 164.9 160.12 159.641L179.447 178.938C184.872 184.354 193.667 184.354 199.092 178.938L199.621 178.409C205.046 172.993 205.046 164.211 199.621 158.794V158.794L212.697 171.85C218.122 177.266 226.918 177.266 232.343 171.85L232.56 171.632C237.985 166.215 237.985 157.433 232.56 152.017V152.017L247.428 166.862C252.853 172.279 261.649 172.279 267.074 166.862L268.732 165.207C274.157 159.79 274.157 151.008 268.732 145.591Z" fill="#F3C59E"/>
<path d="M116.244 53.0762C115.713 50.9431 116.439 48.694 118.054 47.2004C128.509 37.5309 169.812 0 181.076 0H208.298C213.219 0 218.015 1.52119 222.043 4.34355C228.975 9.20081 241.179 17.1798 254.471 23.2359C274.958 32.57 296.837 33.563 296.837 33.563V135.642H283.312L270.997 148.565L176.735 53.3896C171.55 62.9459 122.845 79.5974 116.244 53.0762Z" fill="#E7A585"/>
<path d="M334.543 19.7759H313.48C304.288 19.7759 296.837 27.2157 296.837 36.3933V131.947C296.837 141.124 304.288 148.564 313.48 148.564H334.543C343.734 148.564 351.186 141.124 351.186 131.947V36.3933C351.186 27.2157 343.734 19.7759 334.543 19.7759Z" fill="#FF595E"/>
<path d="M37.7059 12.2675H16.6429C7.4513 12.2675 0 19.7073 0 28.8848V124.439C0 133.616 7.4513 141.056 16.6429 141.056H37.7059C46.8976 141.056 54.3489 133.616 54.3489 124.439V28.8848C54.3489 19.7073 46.8976 12.2675 37.7059 12.2675Z" fill="#FF595E"/>
<path d="M27.1744 51.1896C32.0547 51.1896 36.011 47.2394 36.011 42.3666C36.011 37.4938 32.0547 33.5436 27.1744 33.5436C22.2942 33.5436 18.3379 37.4938 18.3379 42.3666C18.3379 47.2394 22.2942 51.1896 27.1744 51.1896Z" fill="#E00007"/>
<path d="M324.011 130.545C328.891 130.545 332.847 126.595 332.847 121.722C332.847 116.85 328.891 112.899 324.011 112.899C319.131 112.899 315.174 116.85 315.174 121.722C315.174 126.595 319.131 130.545 324.011 130.545Z" fill="#E00007"/>
</g>
<defs>
<clipPath id="clip0_118_961">
<rect width="351" height="183" fill="white"/>
</clipPath>
</defs>
</svg>
