<svg width="193" height="192" viewBox="0 0 193 192" fill="none" xmlns="http://www.w3.org/2000/svg">
<path d="M96.1356 72.1371C97.1293 72.2015 97.5059 71.341 98.0516 70.7992C116.449 52.5308 134.826 34.242 153.217 15.9673C157.48 11.7306 161.79 7.53961 166.063 3.3124C166.655 2.72682 167.239 2.19511 168.119 2.12894C176.418 1.5049 184.674 0.372485 193 0.0683594V2.69756C192.704 2.89434 192.67 3.20133 192.642 3.5166C192.122 9.48624 191.629 15.4585 191.062 21.4238C190.849 23.6707 190.655 25.7337 188.738 27.6249C166.293 49.7618 143.973 72.0235 121.637 94.2689C121.099 94.8053 120.202 95.1618 120.321 96.1746C119.615 96.1906 119.205 96.6861 118.762 97.1275C111.786 104.076 104.809 111.024 97.8362 117.976C97.3997 118.411 96.8499 118.786 96.8641 119.51C96.2739 119.395 95.9452 119.796 95.5902 120.148C84.4401 131.216 73.2897 142.283 62.1394 153.35C58.8869 150.342 55.7627 147.205 52.7239 143.984C53.239 143.531 53.7804 143.104 54.2654 142.621C64.3873 132.547 74.5028 122.467 84.6194 112.388C84.8857 112.122 85.1579 111.863 85.4152 111.589C86.5232 110.411 86.6567 108.248 85.6941 107.153C84.5763 105.881 82.8058 105.669 81.2851 106.705C80.5153 107.23 79.7834 107.833 79.1231 108.49C69.2612 118.292 59.4129 128.108 49.5676 137.928C49.0833 138.411 48.6565 138.951 48.2029 139.465C44.9182 136.411 41.7314 133.259 38.6855 129.968C45.2687 123.385 51.8474 116.799 58.4364 110.223C62.8155 105.852 67.2145 101.501 71.5886 97.1256C72.0527 96.6613 72.7527 96.3191 72.6981 95.4908C73.4928 95.4823 73.8977 94.8692 74.3771 94.3923C81.2679 87.5366 88.1542 80.6764 95.0366 73.8123C95.516 73.3342 96.1272 72.9279 96.1356 72.1371Z" fill="#ADB5BD"/>
<path d="M19.9839 181.154C19.6726 187.222 17.1608 190.22 11.1354 191.732C11.0433 191.755 10.9839 191.907 10.9093 192H8.64726C7.19951 191.198 5.50346 190.978 4.1379 189.946C0.738524 187.378 -0.763632 183.183 0.377174 179.183C1.54793 175.078 5.02603 172.322 9.41491 172.022C9.78878 171.997 10.1628 171.973 10.5366 171.949C15.9871 172.719 18.8602 175.518 19.9839 181.154Z" fill="#FFCA3A"/>
<path d="M182.44 171.948C188.04 171.911 191.27 174.968 193 179.981V184.112C191.995 185.581 191.549 187.347 190.269 188.697C188.513 190.547 186.198 191.171 183.952 192H181.69C180.858 191.291 179.727 191.358 178.797 190.874C174.845 188.818 173.022 185.525 172.993 181.156C174.111 175.522 176.977 172.729 182.44 171.948Z" fill="#FFCA3A"/>
<path d="M96.1356 72.1371C96.1272 72.9279 95.516 73.3342 95.0366 73.8123C88.1542 80.6764 81.2679 87.5366 74.3771 94.3923C73.8977 94.8693 73.4928 95.4823 72.6981 95.4908C72.1945 95.0236 71.6763 94.5709 71.1895 94.087C49.1867 72.2165 27.2157 50.314 5.13827 28.5185C3.0762 26.4828 2.07081 24.3976 1.87071 21.5721C1.39422 14.8438 0.714012 8.12918 0.0508035 1.41544C-0.0728052 0.164134 0.356054 -0.084041 1.49238 0.0219796C7.86033 0.616114 14.2249 1.45675 20.6062 1.62344C24.8031 1.73307 27.4391 3.71919 30.1933 6.47382C51.5963 27.8794 73.1131 49.172 94.5918 70.5025C95.1234 71.0304 95.6217 71.5915 96.1356 72.1371Z" fill="#6C757D"/>
<path d="M62.1392 153.35C62.8635 154.122 63.5937 154.888 64.3108 155.666C67.0159 158.601 67.0073 162.629 64.2951 165.232C61.6411 167.779 57.6712 167.704 54.8456 164.972C52.1482 162.364 49.5249 159.68 46.8555 157.043C46.42 156.613 46.0787 156.048 45.4175 155.889C42.577 152.504 39.35 149.499 36.1135 146.503C33.0831 143.426 30.0598 140.342 27.0195 137.274C25.1563 135.394 24.3593 133.19 25.0742 130.605C26.3399 126.028 31.6797 124.223 35.4763 127.092C36.6188 127.956 37.6208 129.004 38.6863 129.968C41.7312 133.259 44.918 136.411 48.2028 139.465C49.5931 141.087 51.1172 142.576 52.7237 143.984C55.7625 147.205 58.8867 150.342 62.1392 153.35Z" fill="#FFCA3A"/>
<path d="M36.1135 146.503C39.3499 149.499 42.577 152.504 45.4175 155.889C36.9397 164.311 28.4615 172.733 19.9833 181.154C18.8597 175.519 15.9866 172.72 10.5361 171.95C19.062 163.467 27.5878 154.985 36.1135 146.503Z" fill="#E0A500"/>
<path d="M120.321 96.1748C131.65 107.439 142.979 118.704 154.308 129.968C151.242 133.242 148.068 136.41 144.776 139.46C139.656 134.315 134.546 129.159 129.399 124.04C128.885 123.528 128.182 123.156 127.503 122.87C125.92 122.201 124.645 122.86 123.761 124.13C122.906 125.358 122.845 126.782 123.957 127.896C129.35 133.301 134.794 138.655 140.22 144.028C137.176 147.215 134.092 150.363 130.836 153.339C119.512 142.063 108.188 130.787 96.8645 119.51C96.8503 118.786 97.4 118.411 97.8366 117.976C104.809 111.024 111.786 104.076 118.762 97.1277C119.205 96.6863 119.616 96.1908 120.321 96.1748H120.321Z" fill="#6C757D"/>
<path d="M52.724 143.983C51.1176 142.576 49.5934 141.087 48.2031 139.464C48.6566 138.951 49.0834 138.411 49.5677 137.927C59.413 128.108 69.2613 118.292 79.1232 108.49C79.7836 107.833 80.5155 107.23 81.2852 106.705C82.8059 105.668 84.5765 105.881 85.6942 107.152C86.6568 108.248 86.5233 110.41 85.4153 111.589C85.1581 111.863 84.8858 112.122 84.6196 112.387C74.5029 122.467 64.3874 132.547 54.2655 142.621C53.7805 143.104 53.2391 143.531 52.724 143.983Z" fill="#CED4DA"/>
<path d="M130.836 153.339C134.092 150.363 137.175 147.215 140.22 144.027C141.739 142.504 143.258 140.982 144.776 139.46C148.067 136.409 151.241 133.242 154.308 129.967C155.226 129.117 156.113 128.231 157.065 127.422C159.854 125.05 163.794 125.181 166.264 127.694C168.744 130.217 168.844 134.169 166.324 136.847C163.236 140.129 160.02 143.291 156.859 146.506C153.624 149.502 150.394 152.504 147.558 155.894C144.176 158.584 141.397 161.896 138.277 164.857C136.543 166.504 134.584 167.4 132.153 166.944C127.064 165.99 124.932 160.257 128.187 156.231C129.007 155.217 129.949 154.3 130.836 153.339Z" fill="#FFCA3A"/>
<path d="M147.558 155.894C150.394 152.505 153.624 149.502 156.859 146.506C165.386 154.987 173.913 163.468 182.44 171.949C176.976 172.729 174.111 175.522 172.993 181.156C166.457 174.686 159.919 168.22 153.388 161.745C151.433 159.807 149.501 157.845 147.558 155.894Z" fill="#E0A500"/>
<path d="M144.776 139.46C143.257 140.982 141.739 142.504 140.22 144.027C134.794 138.655 129.35 133.301 123.957 127.896C122.845 126.781 122.905 125.358 123.76 124.13C124.644 122.86 125.919 122.201 127.502 122.869C128.181 123.156 128.884 123.528 129.398 124.039C134.546 129.158 139.656 134.314 144.776 139.46Z" fill="#CED4DA"/>
</svg>
