<svg width="673" height="896" viewBox="0 0 673 896" fill="none" xmlns="http://www.w3.org/2000/svg">
<mask id="mask0_118_289" style="mask-type:alpha" maskUnits="userSpaceOnUse" x="0" y="0" width="673" height="896">
<rect x="0.804688" width="672.182" height="896" fill="#D9D9D9"/>
</mask>
<g mask="url(#mask0_118_289)">
<path d="M1027.89 850.697C1023.48 863.166 1017.63 874.545 1006.98 883.167C973.228 910.513 921.807 891.835 913.882 849.072C912.871 843.621 910.652 839.297 906.719 835.389C879.093 807.943 851.471 780.489 824.182 752.709C818.862 747.295 815.626 747.819 810.741 752.98C802.34 761.855 793.757 770.681 784.378 778.477C767.747 792.3 743.678 791.24 727.818 776.866C712.141 762.657 708.859 739.449 720.997 721.471C724.937 715.635 723.934 712.798 719.468 708.378C681.51 670.809 643.676 633.113 606.069 595.193C601.192 590.276 598.556 590.222 593.637 595.186C556.046 633.123 518.222 670.83 480.243 708.377C475.663 712.905 474.937 715.81 478.838 721.468C490.772 738.777 487.353 763.035 471.864 776.906C456.008 791.106 432.278 792.322 416.031 778.75C406.031 770.397 397.021 760.82 387.922 751.448C384.12 747.532 381.688 746.546 377.303 750.989C348.974 779.698 320.403 808.169 291.805 836.611C288.652 839.747 287.419 843.287 286.486 847.509C281.028 872.205 265.771 888.025 241.138 893.165C217.383 898.121 197.462 889.747 183.39 870.244C169.272 850.676 168.404 829.337 180.089 808.148C188.669 792.589 202.517 783.768 219.869 780.624C223.926 779.889 227.069 778.36 229.951 775.466C258.217 747.085 286.475 718.695 314.985 690.56C319.709 685.897 319.68 682.878 314.904 678.453C306.747 670.898 298.924 662.96 291.273 654.887C275.369 638.107 274.169 614.649 288.066 597.177C301.878 579.812 325.472 575.479 344.976 587.656C351.105 591.482 354.304 590.511 358.989 585.817C396.319 548.409 433.754 511.102 471.538 474.154C477.344 468.477 476.299 465.663 471.178 460.578C378.612 368.654 286.311 276.463 193.639 184.645C185.248 176.332 181.851 167.215 180.951 155.956C178.651 127.167 175.829 98.4188 173.118 69.6637C172.112 58.9949 170.828 48.3507 181.422 41.1016C186.988 41.1016 192.553 41.1016 198.118 41.1016C225.46 43.744 252.765 46.8965 280.156 48.8333C296.003 49.9537 308.621 54.4556 320.471 66.3946C409.993 156.595 500.27 246.047 590.332 335.712C601.461 346.793 599.122 346.468 609.907 335.713C701.672 244.207 793.402 152.667 885.121 61.1151C889.884 56.3604 894.562 51.5137 901.747 50.803C914.184 49.573 926.638 48.5147 939.077 47.2962C959.78 45.268 980.477 43.1701 1001.18 41.1016C1008.97 41.1016 1016.76 41.2787 1024.55 41.0101C1027.46 40.9096 1028.14 41.5259 1027.98 44.445C1027.67 49.9923 1027.89 55.5686 1027.89 61.1328C1025.25 88.4842 1021.86 115.791 1020.22 143.202C1019.07 162.548 1013.89 177.973 998.96 192.254C949.312 239.742 901.285 288.926 852.641 337.463C811.283 378.73 769.949 420.021 728.548 461.243C724.93 464.846 722.065 467.459 727.269 472.602C765.854 510.737 804.217 549.098 842.52 587.518C846.419 591.429 849.225 591.536 853.866 588.389C871.59 576.37 895.212 579.119 909.494 594.308C924.544 610.314 925.366 633.806 911.439 651.51C903.497 661.608 893.81 670.045 884.737 679.047C880.733 683.02 880.266 685.589 884.537 689.812C913.42 718.37 942.07 747.165 970.799 775.879C972.774 777.853 974.773 779.684 977.739 780.198C1004.04 784.757 1020.19 800.556 1027.89 825.658V850.697ZM995.177 78.8534C995.9 71.9125 990.796 73.0686 986.878 73.4087C965.844 75.2347 944.859 78.2318 923.796 78.9006C911.296 79.2974 903.55 85.1662 895.421 93.2914C725.016 263.616 554.438 433.767 383.894 603.952C381.924 605.917 380.083 608.032 377.97 609.827C374.363 612.893 374.56 615.456 378.006 618.689C384.495 624.778 391.05 630.879 396.825 637.62C401.83 643.462 404.975 642.472 409.994 637.402C448.745 598.251 487.784 559.385 526.745 520.442C528.908 518.28 531.014 516.017 533.42 514.154C539.842 509.181 547.642 509.539 553.168 514.834C558.558 520 559.277 528.055 554.616 534.589C552.695 537.282 550.261 539.634 547.907 541.988C509.162 580.754 470.474 619.577 431.529 658.142C426.329 663.292 424.939 666.828 431.244 672.016C436.804 676.59 441.941 681.819 446.577 687.335C451.184 692.816 454.191 692.088 459.004 687.241C499.191 646.772 539.636 606.557 580.032 566.295C713.436 433.334 846.851 300.384 980.276 167.444C984.032 163.701 988.038 160.2 988.544 154.4C990.74 129.216 992.963 104.035 995.177 78.8534ZM210.987 73.3388C205.093 71.6659 204.456 75.3131 204.99 80.7989C207.33 104.843 209.556 128.9 211.561 152.973C211.959 157.755 213.773 161.273 217.1 164.589C309.477 256.682 401.821 348.808 494.039 441.059C498.199 445.221 500.568 445.132 504.643 440.997C527.292 418.023 550.092 395.193 573.171 372.652C577.903 368.03 577.105 365.454 572.857 361.351C559.455 348.407 546.403 335.102 533.211 321.941C454.654 243.561 376.102 165.177 297.516 86.8265C294.628 83.9476 292.198 80.4519 287.424 80.0486C262.239 77.9212 237.066 75.6438 210.987 73.3388ZM713.51 597.012C713.311 588.035 720.802 580.787 729.454 581.714C735.08 582.316 738.984 585.944 742.753 589.709C759.079 606.018 775.416 622.317 791.704 638.663C794.448 641.417 796.795 643.759 800.586 639.79C807.689 632.353 815.018 625.126 822.396 617.959C825.63 614.818 824.845 612.44 821.985 609.592C782.984 570.742 744.015 531.858 705.131 492.89C702.061 489.814 699.925 489.82 696.88 492.853C673.053 516.598 649.161 540.279 625.158 563.845C621.984 566.961 622.197 568.925 625.25 571.959C664.498 610.956 703.679 650.02 742.738 689.206C746.332 692.812 748.548 691.971 751.562 688.814C757.513 682.583 763.475 676.323 769.891 670.587C774.539 666.432 774.454 663.713 769.906 659.311C753.127 643.07 736.771 626.393 720.258 609.878C716.672 606.292 713.292 602.594 713.51 597.012ZM757.298 758.01C762.985 757.352 767.085 754.113 770.879 750.32C808.429 712.774 845.99 675.241 883.509 637.665C885.459 635.712 887.451 633.624 888.75 631.233C891.996 625.262 891.835 619.276 886.503 614.577C881.282 609.975 875.442 609.638 869.84 614.198C867.477 616.122 865.323 618.313 863.163 620.471C828.354 655.253 793.542 690.032 758.786 724.866C754.675 728.985 749.777 732.354 746.604 737.382C743.862 741.727 743.6 746.295 745.856 750.856C748.18 755.555 752.499 757.299 757.298 758.01ZM321.683 611.019C316.606 611.864 312.382 614.172 310.08 619.201C307.191 625.511 309.674 630.577 314.08 634.989C353.17 674.126 392.252 713.272 431.45 752.302C438.815 759.635 446.089 759.89 451.944 753.77C457.286 748.187 456.953 740.459 450.229 733.703C411.408 694.69 372.445 655.818 333.515 616.913C330.297 613.697 326.564 611.401 321.683 611.019ZM359.775 725.51C359.761 723.063 358.31 722.065 357.168 720.904C353.853 717.534 350.239 714.419 347.225 710.802C343.642 706.5 341.005 706.935 337.194 710.788C313.34 734.913 289.327 758.883 265.214 782.75C261.658 786.269 260.753 788.662 265.567 791.639C269.616 794.143 272.988 797.572 275.52 801.607C278.192 805.866 280.347 805.559 283.751 802.123C308.017 777.622 332.459 753.296 356.828 728.898C357.979 727.746 358.973 726.438 359.775 725.51ZM858.151 706.757C856.655 707.91 855.272 708.798 854.104 709.912C851.29 712.598 848.808 715.683 845.773 718.075C840.101 722.545 840.085 725.985 845.514 731.261C867.237 752.373 888.483 773.976 909.907 795.397C916.491 801.981 922.99 802.132 929.402 795.851C930.989 794.301 932.568 792.627 934.45 791.517C939.454 788.565 938.215 785.972 934.765 782.547C910.701 758.658 886.772 734.633 862.775 710.676C861.435 709.339 859.883 708.215 858.151 706.757ZM203.182 835.939C202.945 852.12 213.956 863.549 229.894 863.664C245.357 863.776 257.495 851.723 257.503 836.248C257.51 822.402 244.922 809.877 230.627 809.507C215.532 809.117 203.404 820.797 203.182 835.939ZM969.442 863.663C984.815 863.868 997.046 852.345 997.254 837.463C997.465 822.309 984.984 809.472 970.052 809.485C955.246 809.498 943.352 820.981 943.012 835.591C942.635 851.753 953.65 863.453 969.442 863.663Z" fill="#D9D9D9" fill-opacity="0.3"/>
</g>
</svg>
