<svg width="319" height="384" viewBox="0 0 319 384" fill="none" xmlns="http://www.w3.org/2000/svg">
<g clip-path="url(#clip0_118_1149)">
<path d="M123.437 383.16C118.402 380.001 113.366 376.842 108.331 373.682C109.623 371.84 111.842 371.396 113.609 370.299C130.378 359.886 147.235 349.613 164.048 339.27C181.072 328.797 198.06 318.266 215.102 307.821C218.068 306.003 219.296 303.601 219.263 300.111C219.146 287.65 219.225 275.188 219.23 262.726C223.195 261.687 227.159 260.648 231.124 259.61C234.94 258.65 238.756 257.689 242.571 256.728C242.572 273.656 242.457 290.586 242.644 307.512C242.698 312.416 240.951 315.599 236.749 318.162C202.833 338.852 169.006 359.686 135.154 380.48C133.731 381.354 132.331 382.266 130.92 383.16H123.437Z" fill="#6C757D"/>
<path d="M231.124 259.609C227.159 260.648 223.195 261.687 219.23 262.726C213.588 264.196 207.943 265.651 202.305 267.138C179.865 273.055 157.444 279.042 134.974 284.843C131.468 285.748 128.086 287.166 124.074 286.085C95.9143 278.499 67.6988 271.121 39.4778 263.765C30.2423 261.358 21.144 258.398 11.7176 256.743C10.1097 255.705 8.22576 255.535 6.44208 255.035C2.28231 253.868 0.0708177 251.236 0.052324 246.944C-0.0174119 230.757 -0.0175203 214.569 0.0524725 198.382C0.070949 194.109 2.29613 191.482 6.466 190.311C8.24855 189.811 10.139 189.658 11.7265 188.573C12.5812 188.454 13.4577 188.418 14.287 188.202C28.0968 184.598 41.9035 180.982 55.7054 177.348C77.5491 171.597 99.3887 165.831 121.23 160.072C125.194 158.304 129.16 158.833 133.126 160.065C150.345 164.594 167.561 169.136 184.785 173.647C196.26 176.652 207.747 179.613 219.228 182.594C223.229 183.836 227.229 185.078 231.23 186.32C231.195 210.75 231.159 235.179 231.124 259.609ZM121.2 225.655C121.2 235.99 121.215 246.324 121.189 256.659C121.183 259.145 121.716 261.387 123.868 262.865C125.572 264.035 127.379 264.648 129.439 263.452C132.117 261.896 133.112 259.468 133.117 256.585C133.148 236.041 133.164 215.496 133.111 194.951C133.099 190.175 130.902 187.835 126.863 187.845C123.181 187.855 121.216 190.307 121.207 195.025C121.186 205.235 121.2 215.445 121.2 225.655ZM169.059 225.318C169.059 217.348 169.117 209.377 169.027 201.408C168.997 198.685 168.068 196.228 165.327 195.027C163.217 194.103 161.121 194.437 159.36 195.876C157.342 197.525 157.126 199.91 157.127 202.323C157.13 217.89 157.116 233.457 157.136 249.023C157.141 253.214 159.962 256.711 163.178 256.645C166.395 256.579 169.044 253.107 169.055 248.855C169.075 241.01 169.061 233.164 169.059 225.318ZM96.5386 225.786C96.5386 217.432 96.5621 209.078 96.5276 200.724C96.5129 197.173 94.3974 194.715 91.4091 194.603C87.924 194.474 85.3201 196.896 85.3055 200.681C85.2415 217.263 85.2509 233.846 85.2997 250.429C85.3102 253.993 88.1538 256.759 91.3807 256.643C94.2368 256.54 96.5157 253.873 96.5283 250.473C96.5586 242.244 96.5381 234.015 96.5386 225.786ZM204.989 222.546C204.989 217.946 205.021 213.346 204.98 208.747C204.946 205.007 202.261 201.547 199.412 201.453C196.261 201.348 193.207 204.216 193.134 208.08C192.95 217.773 192.959 227.474 193.125 237.167C193.19 240.988 196.348 244.106 199.277 243.915C202.265 243.72 204.937 240.417 204.977 236.717C205.028 231.994 204.989 227.27 204.989 222.546ZM60.6111 223.048C60.6111 217.952 60.66 212.856 60.5949 207.762C60.5468 203.996 58.3422 201.542 55.1284 201.466C51.9749 201.392 49.3867 204.206 49.3711 207.922C49.33 217.74 49.3309 227.558 49.3705 237.375C49.3856 241.107 51.9413 243.913 55.1028 243.86C58.4248 243.804 60.5661 241.267 60.6022 237.215C60.6442 232.493 60.612 227.77 60.6111 223.048Z" fill="#CED4DA"/>
<path d="M11.7177 256.743C21.1441 258.398 30.2424 261.358 39.4779 263.765C67.6989 271.12 95.9145 278.499 124.074 286.085C128.086 287.165 131.468 285.748 134.974 284.843C157.444 279.042 179.866 273.055 202.305 267.138C207.943 265.651 213.588 264.195 219.23 262.726C219.225 275.188 219.146 287.65 219.263 300.11C219.296 303.601 218.068 306.003 215.102 307.821C198.06 318.265 181.072 328.797 164.048 339.27C147.235 349.613 130.378 359.885 113.609 370.299C111.842 371.396 109.623 371.84 108.331 373.682C77.7975 354.948 47.282 336.186 16.7075 317.52C13.108 315.322 11.6343 312.438 11.6585 308.297C11.7588 291.113 11.7111 273.928 11.7177 256.743Z" fill="#ADB5BD"/>
<path d="M121.23 160.071C99.3886 165.831 77.549 171.597 55.7054 177.348C41.9035 180.982 28.0968 184.598 14.287 188.202C13.4577 188.418 12.5811 188.454 11.7265 188.573C11.1305 170.892 12.3258 153.446 19.1164 136.842C34.1078 100.184 61.0805 77.1484 99.1158 66.7723C99.8112 66.5826 100.643 66.7173 101.076 65.9246C106.792 65.189 112.507 64.4534 118.223 63.7178C120.765 64.4021 121.263 66.0742 121.256 68.6016C121.17 99.0911 121.217 129.581 121.23 160.071Z" fill="#ADB5BD"/>
<path d="M133.788 28.6924C152.112 13.2244 174.342 9.07525 197.167 24.8022C204.539 29.8812 211.7 35.3066 219.701 39.4126C233.86 46.6783 248.166 46.075 262.575 40.1602C274.589 35.2283 284.767 27.4776 294.713 19.3608C293.303 32.5182 289.161 44.8056 282.738 56.3241C274.343 71.3818 262.855 83.5184 248.159 92.6048C238.425 98.623 227.911 102.598 216.747 104.947C215.448 103.609 214.118 102.301 212.858 100.928C202.631 89.787 190.676 81.0035 177.051 74.4453C169.424 70.774 161.3 68.5357 153.299 65.9329C156.373 58.9155 155.984 51.9102 153.012 45.0107C149.316 36.4281 142.449 31.4787 133.788 28.6924Z" fill="#8AC926"/>
<path d="M153.298 65.933C161.299 68.5356 169.423 70.7739 177.05 74.4452C190.675 81.0034 202.631 89.7869 212.857 100.928C214.117 102.301 215.448 103.609 216.747 104.947C217.132 105.472 217.516 105.998 217.901 106.524C229.098 121.066 236.877 137.174 240.548 155.239C242.792 166.282 242.566 177.433 242.552 188.59C238.741 188.016 235.17 186.25 231.23 186.32C227.229 185.078 223.229 183.836 219.228 182.594C219.709 169.469 218.426 156.552 214.449 143.989C207.542 122.169 195.134 104.084 177.445 89.5667C165.667 79.9002 152.468 72.9189 137.965 68.3792C133.204 66.8888 133.163 67.0141 133.161 72.155C133.149 101.458 133.138 130.762 133.126 160.065C129.16 158.833 125.194 158.304 121.23 160.072C121.217 129.581 121.17 99.091 121.256 68.6015C121.263 66.0741 120.765 64.402 118.223 63.7172C122.674 63.6422 127.125 63.5677 131.576 63.4932C138.925 63.3444 146.046 65.2177 153.298 65.933Z" fill="#6C757D"/>
<path d="M217.901 106.524C217.516 105.998 217.132 105.472 216.747 104.947C227.911 102.598 238.425 98.6229 248.159 92.6047C262.855 83.5183 274.343 71.3817 282.738 56.3241C289.16 44.8055 293.302 32.5181 294.713 19.3607C300.604 13.292 307.1 7.82843 312.644 1.41295C313.732 0.15477 315.13 -0.36633 316.662 0.275157C318.386 0.996506 318.716 2.56504 318.717 4.31134C318.743 43.9428 302.044 74.2809 267.943 94.5906C252.627 103.713 235.731 107.362 217.901 106.524Z" fill="#476714"/>
<path d="M231.23 186.32C235.17 186.25 238.742 188.016 242.552 188.59C242.999 188.806 243.425 189.134 243.895 189.221C254.075 191.108 254.461 194.893 254.358 203.22C254.189 216.802 254.313 230.388 254.312 243.971C254.311 251.994 252.891 253.81 245.026 255.909C244.194 256.131 243.389 256.453 242.571 256.728C238.756 257.689 234.941 258.65 231.125 259.61C231.159 235.179 231.195 210.75 231.23 186.32Z" fill="#ADB5BD"/>
<path d="M131.576 63.4932C127.125 63.5676 122.674 63.6421 118.223 63.7171C112.508 64.4532 106.792 65.1888 101.076 65.9244C95.1164 52.6527 101.963 36.4184 115.933 30.6938C116.415 31.0616 116.859 31.4966 117.383 31.7869C123.919 35.4058 128.462 40.6789 130.801 47.8114C132.492 52.9708 131.708 58.2468 131.576 63.4932Z" fill="#CED4DA"/>
<path d="M131.576 63.4933C131.707 58.2469 132.492 52.971 130.801 47.8115C128.462 40.6791 123.918 35.406 117.383 31.7871C116.859 31.4967 116.415 31.0618 115.933 30.694C121.602 27.4903 127.718 28.2855 133.79 28.6921C142.449 31.4787 149.316 36.4281 153.012 45.0107C155.983 51.9102 156.372 58.9155 153.298 65.9329C146.046 65.2178 138.925 63.3445 131.576 63.4933Z" fill="#ADB5BD"/>
<path d="M133.126 160.065C133.138 130.762 133.149 101.459 133.161 72.1551C133.163 67.0141 133.204 66.8888 137.965 68.3793C152.468 72.9189 165.667 79.9002 177.445 89.5667C195.134 104.084 207.542 122.169 214.449 143.989C218.426 156.552 219.709 169.469 219.228 182.594C207.746 179.613 196.26 176.652 184.785 173.647C167.561 169.136 150.345 164.594 133.126 160.065Z" fill="#ADB5BD"/>
<path d="M121.2 225.655C121.2 215.445 121.186 205.235 121.207 195.025C121.216 190.307 123.181 187.855 126.863 187.845C130.903 187.835 133.099 190.175 133.111 194.951C133.164 215.496 133.148 236.041 133.117 256.585C133.112 259.468 132.118 261.896 129.439 263.452C127.379 264.648 125.572 264.035 123.868 262.865C121.716 261.387 121.183 259.145 121.19 256.659C121.215 246.324 121.2 235.99 121.2 225.655Z" fill="#6C757D"/>
<path d="M169.06 225.318C169.061 233.164 169.075 241.01 169.055 248.855C169.044 253.107 166.394 256.579 163.178 256.645C159.962 256.711 157.141 253.214 157.136 249.023C157.116 233.457 157.13 217.89 157.127 202.323C157.126 199.91 157.342 197.525 159.36 195.876C161.121 194.437 163.216 194.103 165.327 195.027C168.067 196.227 168.996 198.685 169.027 201.408C169.117 209.377 169.059 217.348 169.06 225.318Z" fill="#6C757D"/>
<path d="M96.5383 225.786C96.538 234.015 96.5585 242.244 96.5282 250.473C96.5157 253.873 94.2367 256.539 91.3806 256.643C88.1537 256.759 85.3101 253.993 85.2997 250.429C85.2509 233.846 85.2415 217.263 85.3054 200.681C85.32 196.896 87.9239 194.474 91.409 194.603C94.3974 194.714 96.5128 197.173 96.5275 200.724C96.562 209.078 96.5385 217.432 96.5383 225.786Z" fill="#6C757D"/>
<path d="M204.989 222.546C204.989 227.27 205.028 231.994 204.977 236.717C204.937 240.416 202.266 243.72 199.278 243.915C196.348 244.106 193.191 240.988 193.125 237.167C192.959 227.474 192.951 217.773 193.134 208.08C193.207 204.216 196.261 201.348 199.412 201.453C202.262 201.547 204.946 205.007 204.98 208.747C205.021 213.346 204.99 217.946 204.989 222.546Z" fill="#6C757D"/>
<path d="M60.6113 223.047C60.6118 227.77 60.644 232.493 60.602 237.215C60.5659 241.267 58.4246 243.803 55.1026 243.86C51.9411 243.913 49.3854 241.107 49.3703 237.375C49.3307 227.558 49.3298 217.739 49.3709 207.922C49.3865 204.206 51.9747 201.391 55.1282 201.466C58.342 201.542 60.5466 203.996 60.5947 207.762C60.6598 212.856 60.6109 217.952 60.6113 223.047Z" fill="#6C757D"/>
</g>
<defs>
<clipPath id="clip0_118_1149">
<rect width="318.718" height="383.16" fill="white"/>
</clipPath>
</defs>
</svg>
