<svg width="672" height="989" viewBox="0 0 672 989" fill="none" xmlns="http://www.w3.org/2000/svg">
<mask id="mask0_118_352" style="mask-type:alpha" maskUnits="userSpaceOnUse" x="0" y="0" width="672" height="989">
<rect width="672" height="989" fill="#D9D9D9"/>
</mask>
<g mask="url(#mask0_118_352)">
<path d="M310.859 191.287C325.216 183.205 340.522 177.1 356.262 172.382C363.659 170.164 366.321 166.87 366.213 158.859C365.482 104.595 403.375 67.7371 458.388 68.9115C463.529 69.0212 466.874 66.5467 470.533 64.0089C497.13 45.5649 526.008 34.3858 558.959 35.1289C588.174 35.7878 613.219 47.5882 636.941 63.181C647.169 69.9039 657.419 76.6386 667.223 83.9531C713.52 118.496 760.822 116.405 809.007 88.3653C841.608 69.3942 869.457 44.6069 895.612 17.7354C900.105 13.1187 904.436 8.31365 909.222 4.01799C916.405 -2.42985 924.917 -3.39361 933.572 0.263917C941.926 3.79441 946.531 10.4382 947.271 19.6982C957.283 144.957 862.83 268.264 739.035 291.46C732.079 292.764 725.109 294.465 718.086 294.828C709.173 295.288 710.723 298.679 714.107 304.2C731.948 333.309 744.207 364.651 751.01 398.119C755.514 420.279 757.685 442.677 757.354 465.273C757.259 471.747 758.807 475.699 765.421 478.604C779.485 484.782 786.173 496.812 786.292 511.818C786.61 552.088 786.593 592.364 786.307 632.634C786.202 647.351 779.505 658.903 765.763 664.949C758.901 667.969 757.287 672.354 757.335 679.222C757.581 714.016 757.158 748.816 757.563 783.607C757.774 801.761 750.759 814.814 735.114 824.358C650.688 875.86 566.493 927.742 482.147 979.377C476.135 983.058 469.556 985.814 463.241 989H440.037C409.7 973.89 381.803 954.666 352.926 937.11C292.094 900.126 231.782 862.28 170.71 825.701C153.01 815.099 145.946 800.899 146.155 781.166C146.505 747.985 146.026 714.795 146.399 681.615C146.493 673.298 144.669 667.964 136.336 664.329C125.559 659.628 120.125 650.032 118.373 638.499C116.23 624.398 117.201 610.187 117.329 596.037C117.598 566.414 116.071 536.771 118.232 507.168C119.218 493.674 126.167 483.955 138.159 478.582C144.657 475.671 146.323 471.731 146.35 465.216C146.56 415.224 156.216 367.39 179.265 322.612C196.577 288.979 219.448 259.72 247.583 234.528C247.583 234.528 270.215 216.335 278.518 210.661C286.034 205.525 310.859 191.287 310.859 191.287ZM268.377 257.343C234.868 287.822 209.716 323.912 194.07 366.5C183.305 395.803 178.492 426.172 177.612 457.294C177.4 464.803 179.478 466.859 187.148 464.812C267.092 443.479 347.096 422.365 427.143 401.419C433.628 399.722 436.035 396.637 436.019 390.033C435.866 326.242 435.803 262.449 436.073 198.658C436.111 189.737 432.003 188.447 424.709 189.343C393.509 193.175 363.289 200.47 334.805 214.127C331.322 215.797 327.817 217.471 324.196 218.796C324.196 218.796 299.542 233.23 291.953 238.471C285.587 242.867 268.377 257.343 268.377 257.343ZM645.888 665.55C678.293 657.141 710.593 648.322 743.065 640.182C751.597 638.043 755.406 634.569 754.99 625.139C754.21 607.456 754.766 589.713 754.763 571.995C754.763 553.955 754.358 535.902 754.942 517.881C755.216 509.419 751.88 506.084 744.022 504.043C650.239 479.683 556.52 455.075 462.826 430.377C455.407 428.422 448.423 428.394 441.003 430.348C346.995 455.104 252.964 479.77 158.873 504.205C151.316 506.167 148.449 509.546 148.531 517.498C148.898 553.252 148.971 589.016 148.495 624.768C148.374 633.884 151.5 637.803 160.254 640.083C249.97 663.45 339.657 686.936 429.173 711.055C444.651 715.226 458.891 715.662 474.409 711.128C508.077 701.289 542.155 692.835 576.154 684.162L645.888 665.55ZM581.036 714.959C543.674 724.766 506.276 734.447 469.032 744.687C457.772 747.782 447.178 747.848 435.864 744.83C353.127 722.76 270.272 701.137 187.52 679.126C179.811 677.075 177.408 678.353 177.52 686.766C177.947 718.976 177.847 751.195 177.576 783.408C177.517 790.357 179.93 794.623 185.869 798.253C270.79 850.159 355.635 902.19 440.361 954.413C448.57 959.473 455.597 959.333 463.639 954.383C548.396 902.207 633.223 850.143 718.128 798.209C723.772 794.757 725.923 790.629 725.873 784.084C725.626 751.55 725.488 719.009 725.941 686.479C726.068 677.338 722.653 677.345 715.552 679.346C695.416 685.023 675.118 690.126 654.893 695.49L581.036 714.959ZM725.677 445.431C725.01 431.443 722.935 413.897 718.8 396.639C691.904 284.391 594.065 199.838 479.121 189.203C470.26 188.383 467.371 191.053 467.422 200.182C467.768 262.65 467.762 325.121 467.419 387.589C467.371 396.259 470.145 399.938 478.573 402.126C555.187 422.014 631.682 442.356 708.23 462.5C727.321 467.523 725.722 469.175 725.677 445.431ZM916.417 39.6486C911.748 44.8515 909.128 48.0985 906.177 51.0109C876.686 80.1163 845.015 106.323 807.257 124.238C777.461 138.376 746.408 144.974 713.454 138.709C690.877 134.417 671.083 123.821 652.143 111.302C634.427 99.5909 617.761 86.2287 598.547 76.8618C567.977 61.9596 537.621 63.4813 507.371 78.0194C501.614 80.7863 499.67 82.8156 505.849 87.8253C528.37 106.086 539.367 129.831 537.353 158.954C536.832 166.485 539.547 169.769 546.557 172.035C599.195 189.046 644.18 218.013 680.924 259.48C684.687 263.726 688.769 265.597 694.388 265.305C711.456 264.421 728.385 262.655 744.932 258.192C842.8 231.797 910.439 146.782 916.417 39.6486ZM452.169 100.112C422.544 99.9897 397.927 123.152 397.454 151.205C397.326 158.769 399.583 161.666 407.606 160.401C437.333 155.713 467.117 155.669 496.883 160.421C505.942 161.867 507.703 160.022 506.931 150.636C504.559 121.789 481.194 100.232 452.169 100.112Z" fill="#D9D9D9" fill-opacity="0.3"/>
<path d="M467.599 580.094C467.598 604.892 467.608 629.689 467.588 654.486C467.585 658.659 467.839 662.867 466.006 666.83C463.162 672.975 458.528 676.456 451.635 676.243C444.856 676.033 440.08 672.688 437.593 666.317C435.917 662.025 435.941 657.499 435.942 652.978C435.952 604.028 435.944 555.078 435.958 506.128C435.959 503.554 435.89 500.951 436.235 498.413C437.514 489.001 443.677 483.24 452.098 483.376C460.481 483.511 466.487 489.528 467.425 498.947C467.711 501.821 467.593 504.738 467.594 507.636C467.605 531.789 467.6 555.941 467.599 580.094Z" fill="#D9D9D9" fill-opacity="0.3"/>
<path d="M526.564 578.652C526.564 558.996 526.466 539.338 526.6 519.682C526.681 507.742 532.815 500.649 542.498 500.76C551.778 500.867 558.02 507.67 558.081 519.165C558.292 559.122 558.29 599.081 558.084 639.037C558.025 650.476 551.736 657.383 542.536 657.506C532.932 657.636 526.681 650.428 526.601 638.589C526.466 618.611 526.564 598.631 526.564 578.652Z" fill="#D9D9D9" fill-opacity="0.3"/>
<path d="M346.47 578.529C346.468 558.901 346.392 539.273 346.495 519.646C346.561 507.16 352.091 500.645 362.053 500.88C371.589 501.106 376.823 507.48 376.845 519.496C376.922 559.395 376.928 599.295 376.838 639.193C376.812 650.716 370.948 657.636 361.681 657.723C352.358 657.811 346.585 651.035 346.509 639.343C346.376 619.072 346.472 598.8 346.47 578.529Z" fill="#D9D9D9" fill-opacity="0.3"/>
<path d="M287.245 571.662C287.24 583.246 287.564 594.842 287.15 606.412C286.723 618.35 280.216 625.728 271.085 625.692C261.816 625.656 255.864 618.211 255.809 606.091C255.706 583.244 255.71 560.395 255.808 537.548C255.859 525.711 261.191 519.02 270.488 518.613C280.254 518.186 286.713 524.873 287.158 536.912C287.585 548.48 287.25 560.077 287.245 571.662Z" fill="#D9D9D9" fill-opacity="0.3"/>
<path d="M647.643 571.348C647.644 583.888 647.823 596.432 647.587 608.968C647.4 618.899 641.154 625.603 632.636 625.69C624.146 625.776 617.464 618.996 617.381 609.254C617.169 584.497 617.169 559.735 617.372 534.978C617.456 524.589 623.215 518.677 632.344 518.597C641.494 518.516 647.35 524.411 647.579 534.693C647.851 546.906 647.643 559.129 647.643 571.348Z" fill="#D9D9D9" fill-opacity="0.3"/>
</g>
</svg>
