<svg width="304" height="419" viewBox="0 0 304 419" fill="none" xmlns="http://www.w3.org/2000/svg">
    <path d="M133.901 6.4248C133.901 6.4248 20.788 11.7718 20.788 150.388H133.901V6.4248Z" fill="#CED4DA" />
    <path d="M170.099 6.4248C170.099 6.4248 283.212 11.7718 283.212 150.388H170.099V6.4248Z" fill="#ADB5BD" />
    <path
        d="M152 182.39H44.468V319.038C44.468 327.595 53.043 333.4 61.04 330.358C78.169 323.841 108.543 315.523 152 315.523C195.457 315.523 225.831 323.841 242.96 330.358C250.957 333.4 259.532 327.594 259.532 319.038V182.39H152Z"
        fill="#76AB21" />
    <path d="M36.446 150.387H133.901V15.6475C125.48 83.0175 99.799 127.269 36.446 150.387Z" fill="#ADB5BD" />
    <path
        d="M167.014 0.254883H136.986C135.513 0.254883 134.101 0.839928 133.059 1.88132C132.018 2.92271 131.433 4.33513 131.433 5.80788V147.509H172.566V5.80788C172.566 4.33531 171.981 2.92303 170.94 1.88167C169.899 0.840311 168.487 0.255148 167.014 0.254883Z"
        fill="#CED4DA" />
    <path
        d="M27.423 194.289C25.871 212.621 18.027 297.294 0.778003 358.943C-0.353997 362.988 0.240005 367.327 2.581 370.815C9.343 380.892 26.768 401.839 62.603 417.736C67.54 419.927 73.047 416.16 72.648 410.773C70.685 384.279 66.487 315.771 69.595 248.075C69.595 248.075 38.539 230.556 28.599 194.223C28.419 193.565 27.48 193.609 27.423 194.289Z"
        fill="url(#paint0_linear_118_81)" />
    <path
        d="M276.577 194.289C278.129 212.621 285.973 297.294 303.222 358.943C304.354 362.988 303.76 367.327 301.419 370.815C294.656 380.892 277.232 401.839 241.397 417.736C236.46 419.927 230.953 416.16 231.352 410.773C233.315 384.279 237.513 315.771 234.405 248.075C234.405 248.075 265.46 230.556 275.402 194.223C275.581 193.565 276.52 193.609 276.577 194.289Z"
        fill="url(#paint1_linear_118_81)" />
    <path
        d="M54.828 187.666C54.828 187.666 60.439 241.906 141.717 237.854L141.177 266.844C141.177 266.844 35.813 279.625 24.903 187.666H54.828Z"
        fill="#CED4DA" />
    <path
        d="M152 60.6651C156.764 60.6651 160.626 56.8031 160.626 52.0391C160.626 47.2751 156.764 43.4131 152 43.4131C147.236 43.4131 143.374 47.2751 143.374 52.0391C143.374 56.8031 147.236 60.6651 152 60.6651Z"
        fill="#6C757D" />
    <path
        d="M152 116.206C156.764 116.206 160.626 112.344 160.626 107.58C160.626 102.816 156.764 98.9541 152 98.9541C147.236 98.9541 143.374 102.816 143.374 107.58C143.374 112.344 147.236 116.206 152 116.206Z"
        fill="#6C757D" />
    <path
        d="M249.172 187.666C249.172 187.666 243.561 241.906 162.283 237.854L162.823 266.844C162.823 266.844 268.187 279.625 279.097 187.666H249.172Z"
        fill="#CED4DA" />
    <path
        d="M152 187.666H138.059V269.965C138.059 271.111 138.285 272.246 138.723 273.304C139.162 274.363 139.805 275.325 140.615 276.135C141.425 276.945 142.387 277.588 143.446 278.026C144.504 278.465 145.639 278.69 146.785 278.69H157.216C158.362 278.69 159.497 278.465 160.555 278.026C161.614 277.588 162.576 276.945 163.386 276.135C164.196 275.325 164.839 274.363 165.278 273.304C165.716 272.246 165.942 271.111 165.942 269.965V187.666H152Z"
        fill="#ADB5BD" />
    <path
        d="M170.099 150.388H283.212C283.212 145.974 283.092 141.701 282.869 137.553H170.099V150.388ZM243.06 204.698H275.678C277.28 199.123 278.424 193.426 279.098 187.665H249.172C249.172 187.666 248.375 195.34 243.06 204.698ZM54.828 187.666H24.902C25.5763 193.427 26.7204 199.124 28.323 204.699H60.939C55.626 195.34 54.828 187.666 54.828 187.666ZM138.059 187.666V204.697H165.941V187.666H152H138.059ZM21.131 137.553C20.9017 141.827 20.7873 146.107 20.788 150.388H133.901V137.553H21.131Z"
        fill="#6C757D" />
    <path d="M131.434 137.553V147.509H172.566V137.553H131.434Z" fill="#6C757D" />
    <path
        d="M284.857 147.509H19.143C17.5066 147.509 15.9372 148.159 14.7801 149.316C13.623 150.473 12.973 152.042 12.973 153.679V184.528C12.973 186.164 13.623 187.734 14.7801 188.891C15.9372 190.048 17.5066 190.698 19.143 190.698H284.857C286.493 190.698 288.063 190.048 289.22 188.891C290.377 187.734 291.027 186.164 291.027 184.528V153.679C291.027 152.042 290.377 150.473 289.22 149.316C288.063 148.159 286.493 147.509 284.857 147.509Z"
        fill="#CED4DA" />
    <path
        d="M38.626 177.729C43.3895 177.729 47.251 173.867 47.251 169.104C47.251 164.34 43.3895 160.479 38.626 160.479C33.8626 160.479 30.001 164.34 30.001 169.104C30.001 173.867 33.8626 177.729 38.626 177.729Z"
        fill="#6C757D" />
    <path
        d="M95.313 177.73C100.077 177.73 103.939 173.868 103.939 169.104C103.939 164.34 100.077 160.478 95.313 160.478C90.549 160.478 86.687 164.34 86.687 169.104C86.687 173.868 90.549 177.73 95.313 177.73Z"
        fill="#6C757D" />
    <path
        d="M152 177.73C156.764 177.73 160.626 173.868 160.626 169.104C160.626 164.34 156.764 160.478 152 160.478C147.236 160.478 143.374 164.34 143.374 169.104C143.374 173.868 147.236 177.73 152 177.73Z"
        fill="#6C757D" />
    <path
        d="M265.374 177.729C270.137 177.729 273.999 173.867 273.999 169.104C273.999 164.34 270.137 160.479 265.374 160.479C260.611 160.479 256.749 164.34 256.749 169.104C256.749 173.867 260.611 177.729 265.374 177.729Z"
        fill="#6C757D" />
    <path
        d="M208.687 177.73C213.451 177.73 217.313 173.868 217.313 169.104C217.313 164.34 213.451 160.478 208.687 160.478C203.923 160.478 200.061 164.34 200.061 169.104C200.061 173.868 203.923 177.73 208.687 177.73Z"
        fill="#6C757D" />
    <defs>
        <linearGradient id="paint0_linear_118_81" x1="36.4454" y1="393.315" x2="36.4454" y2="233.25"
            gradientUnits="userSpaceOnUse">
            <stop stop-color="#C3E887" />
            <stop offset="1" stop-color="#76AB21" />
        </linearGradient>
        <linearGradient id="paint1_linear_118_81" x1="267.555" y1="393.315" x2="267.555" y2="233.25"
            gradientUnits="userSpaceOnUse">
            <stop stop-color="#C3E887" />
            <stop offset="1" stop-color="#76AB21" />
        </linearGradient>
    </defs>
</svg>
