<svg viewBox="0 0 470 258" fill="none" xmlns="http://www.w3.org/2000/svg">
    <path
        d="M93 103V131.191H378.052V103H235.526H93ZM237.272 146.841C188.564 146.841 149.078 186.326 149.078 235.035V257.196H325.466V235.035C325.465 186.326 285.98 146.841 237.272 146.841Z"
        fill="#495057" />
    <rect x="104.833" y="113.028" width="265" height="18" fill="#FF595E" />
    <path
        d="M306.481 179.921C302.683 175.152 298.402 170.788 293.708 166.898V222.692H274.984V155.04C270.858 153.105 266.587 151.495 262.21 150.225V222.693H243.93V146.958C241.819 146.808 239.694 146.703 237.543 146.703C235.393 146.703 233.268 146.807 231.155 146.958V222.693H212.433V150.351C208.054 151.645 203.783 153.28 199.659 155.241V222.693H181.379V166.899C176.685 170.79 172.404 175.154 168.605 179.922V222.693H150.21C149.643 226.736 149.356 230.813 149.35 234.896V235.467H168.605V257.058H181.379V235.467H199.659V257.058H212.433V235.467H231.156V257.058H243.93V235.467H262.21V257.058H274.984V235.467H293.708V257.058H306.481V235.467H325.736V234.896C325.73 230.813 325.442 226.736 324.876 222.693H306.481V179.921V179.921ZM354.569 75.864V90.347H330.814V75.864C330.814 74.5655 330.298 73.3202 329.38 72.402C328.462 71.4838 327.216 70.968 325.918 70.968H288.203C286.904 70.968 285.659 71.4838 284.741 72.402C283.823 73.3202 283.307 74.5655 283.307 75.864V90.347H259.553V75.864C259.553 74.5655 259.037 73.3202 258.119 72.402C257.201 71.4838 255.955 70.968 254.657 70.968H216.941C215.642 70.968 214.397 71.4838 213.479 72.402C212.561 73.3202 212.045 74.5655 212.045 75.864V90.347H188.291V75.864C188.291 74.5655 187.775 73.3202 186.857 72.402C185.939 71.4838 184.693 70.968 183.395 70.968H145.68C144.381 70.968 143.136 71.4838 142.218 72.402C141.3 73.3202 140.784 74.5655 140.784 75.864V90.347H117.03V75.864C117.03 74.5655 116.514 73.3202 115.596 72.402C114.678 71.4838 113.432 70.968 112.134 70.968H93.2759V112.931H378.323V70.968H359.465C358.822 70.9679 358.185 71.0944 357.591 71.3404C356.997 71.5864 356.457 71.9471 356.003 72.4017C355.548 72.8564 355.187 73.3962 354.941 73.9902C354.695 74.5843 354.569 75.221 354.569 75.864V75.864Z"
        fill="#CED4DA" />
    <path d="M100.575 53.147L118.826 257.056H0L13.979 53.147H100.575Z" fill="#ADB5BD" />
    <path
        d="M90.023 6.04404V20.181H68.767V6.04404C68.767 4.65351 68.2146 3.31992 67.2314 2.33667C66.2481 1.35342 64.9145 0.801025 63.524 0.801025H50.255C48.8645 0.801025 47.5309 1.35342 46.5476 2.33667C45.5644 3.31992 45.012 4.65351 45.012 6.04404V20.181H23.754V6.04404C23.754 5.35552 23.6184 4.67374 23.3549 4.03763C23.0914 3.40152 22.7052 2.82353 22.2184 2.33667C21.7315 1.84981 21.1535 1.46362 20.5174 1.20013C19.8813 0.936649 19.1995 0.801025 18.511 0.801025H5.242C4.55353 0.801025 3.8718 0.936652 3.23574 1.20015C2.59969 1.46365 2.02177 1.84986 1.53499 2.33673C1.04821 2.8236 0.662113 3.40159 0.398737 4.03769C0.135361 4.67379 -0.000131243 5.35556 9.53919e-08 6.04404V53.148H113.778V6.04404C113.778 4.65351 113.226 3.31992 112.242 2.33667C111.259 1.35342 109.926 0.801025 108.535 0.801025H95.266C94.5774 0.800894 93.8956 0.936421 93.2594 1.19986C92.6233 1.4633 92.0452 1.8495 91.5583 2.33638C91.0715 2.82326 90.6853 3.40129 90.4218 4.03746C90.1584 4.67363 90.0229 5.35548 90.023 6.04404V6.04404Z"
        fill="#CED4DA" />
    <path d="M102.431 73.883L100.575 53.147H13.9791L12.5581 73.883H102.431Z" fill="#FF595E" />
    <path
        d="M83.2082 257.056V224.489C83.2082 211.572 72.7362 201.1 59.8192 201.1C46.9022 201.1 36.4302 211.572 36.4302 224.489V257.056H83.2082ZM74.3422 153.678H45.2972V134.264C45.2972 126.244 51.7992 119.743 59.8192 119.743C67.8402 119.743 74.3412 126.245 74.3412 134.264V153.678H74.3422Z"
        fill="#6C757D" />
    <path d="M369.091 53.147L350.84 257.056H469.666L455.687 53.147H369.091Z" fill="#ADB5BD" />
    <path
        d="M379.643 6.04404V20.181H400.9V6.04404C400.9 4.65351 401.452 3.31992 402.435 2.33667C403.419 1.35342 404.752 0.801025 406.143 0.801025H419.412C420.802 0.801025 422.136 1.35342 423.119 2.33667C424.102 3.31992 424.655 4.65351 424.655 6.04404V20.181H445.913V6.04404C445.913 5.35556 446.048 4.67379 446.311 4.03769C446.575 3.40159 446.961 2.8236 447.448 2.33673C447.934 1.84986 448.512 1.46365 449.148 1.20015C449.784 0.936652 450.466 0.801025 451.155 0.801025H464.424C465.814 0.801025 467.148 1.35342 468.131 2.33667C469.114 3.31992 469.667 4.65351 469.667 6.04404V53.148H355.888V6.04404C355.888 4.65351 356.44 3.31992 357.423 2.33667C358.407 1.35342 359.74 0.801025 361.131 0.801025H374.4C375.088 0.800894 375.77 0.936421 376.406 1.19986C377.042 1.4633 377.62 1.8495 378.107 2.33638C378.594 2.82326 378.98 3.40129 379.244 4.03746C379.507 4.67363 379.643 5.35548 379.643 6.04404V6.04404Z"
        fill="#CED4DA" />
    <path d="M367.235 73.883L369.091 53.147H455.687L457.108 73.883H367.235Z" fill="#FF595E" />
    <path
        d="M386.458 257.056V224.489C386.458 211.572 396.93 201.1 409.847 201.1C422.764 201.1 433.236 211.572 433.236 224.489V257.056H386.458ZM395.324 153.678H424.368V134.264C424.368 126.244 417.867 119.743 409.847 119.743C401.826 119.743 395.325 126.245 395.325 134.264V153.678H395.324Z"
        fill="#6C757D" />
</svg>
