<svg viewBox="0 0 119 257" fill="none" xmlns="http://www.w3.org/2000/svg">
    <path d="M100.575 52.3459L118.826 256.255H0L13.979 52.3459H100.575Z" fill="#ADB5BD" />
    <path
        d="M90.023 5.24301V19.38H68.767V5.24301C68.767 3.85248 68.2146 2.5189 67.2314 1.53564C66.2481 0.552391 64.9145 9.54089e-08 63.524 9.54089e-08H50.255C48.8645 9.54089e-08 47.5309 0.552391 46.5476 1.53564C45.5644 2.5189 45.012 3.85248 45.012 5.24301V19.38H23.754V5.24301C23.754 4.55449 23.6184 3.87271 23.3549 3.2366C23.0914 2.60049 22.7052 2.0225 22.2184 1.53564C21.7315 1.04879 21.1535 0.662594 20.5174 0.399109C19.8813 0.135624 19.1995 9.54089e-08 18.511 9.54089e-08H5.242C4.55353 8.28814e-08 3.8718 0.135627 3.23574 0.399124C2.59969 0.662622 2.02177 1.04884 1.53499 1.53571C1.04821 2.02258 0.662113 2.60056 0.398737 3.23666C0.135361 3.87277 -0.000131243 4.55454 9.53919e-08 5.24301V52.347H113.778V5.24301C113.778 3.85248 113.226 2.5189 112.242 1.53564C111.259 0.552391 109.926 9.54089e-08 108.535 9.54089e-08H95.266C94.5774 -0.000131271 93.8956 0.135395 93.2594 0.398834C92.6233 0.662273 92.0452 1.04847 91.5583 1.53535C91.0715 2.02224 90.6853 2.60027 90.4218 3.23643C90.1584 3.8726 90.0229 4.55445 90.023 5.24301V5.24301Z"
        fill="#CED4DA" />
    <path d="M102.431 73.082L100.575 52.3459H13.9791L12.5581 73.082H102.431Z" fill="#6A4C93" />
    <path
        d="M83.2082 256.255V223.688C83.2082 210.771 72.7362 200.299 59.8192 200.299C46.9022 200.299 36.4302 210.771 36.4302 223.688V256.255H83.2082ZM74.3422 152.877H45.2972V133.463C45.2972 125.443 51.7992 118.942 59.8192 118.942C67.8402 118.942 74.3412 125.444 74.3412 133.463V152.877H74.3422Z"
        fill="#6C757D" />
</svg>
