<svg width="369" height="364" viewBox="0 0 369 364" fill="none" xmlns="http://www.w3.org/2000/svg">
    <path
        d="M360.932 207.975C366.072 209.945 368.316 214.325 368.371 219.458C368.669 246.967 365.257 273.897 354.929 299.633C348.545 315.538 339.434 329.685 326.641 341.166C315.589 351.085 302.759 358.062 288.479 362.267C287.428 362.577 286.284 362.692 285.184 362.692C239.212 362.723 193.24 362.732 147.268 362.734C146.399 362.734 145.53 362.63 144.662 362.574C144.752 361.68 145.418 361.379 146.14 361.136C147.362 360.853 148.614 360.838 149.853 360.833C177.477 360.731 205.101 360.642 232.717 360.862C250.431 361.236 268.176 360.478 284.152 361.197C257.308 346.896 240.443 322.949 232.647 292.084C229.22 277.206 228.03 262.184 229.401 246.951C230.104 239.154 230.755 231.363 232.467 223.709C233.748 217.735 234.484 211.63 236.623 205.852C237.008 204.935 237.551 204.118 238.219 203.383C239.06 200.019 239.589 196.478 241.38 193.509C243.773 189.54 247.46 187.403 252.273 187.623C253.391 187.675 255.06 188.395 254.681 186.183C253.952 181.926 254.494 177.532 253.246 173.339C253.626 166.158 255.414 159.432 259.269 153.259C261.748 149.292 265.086 146.136 268.455 143.048C275.892 136.23 284.005 130.308 293.106 125.849C296.599 124.137 300.283 123.131 304.216 123.24C307.121 124.869 309.635 123.959 312.156 122.207C317.174 118.72 322.303 115.382 328.681 115.043C335.12 114.702 340.285 117.395 344.408 122.136C346.357 124.377 348.058 126.845 349.746 129.296C352.58 133.413 351.902 136.724 347.701 139.644C347.129 140.042 346.849 140.505 346.773 141.151C341.56 141.505 336.451 142.312 331.534 144.21C327.707 145.688 324.18 147.648 320.875 150.113C327.115 148.971 333.273 147.494 339.629 147.731C343.861 147.889 348.077 148.291 351.973 150.206C353.692 152.821 354.513 155.811 355.434 158.741C356.468 162.03 354.446 164.394 352.667 166.783C351.749 168.558 350.034 168.955 348.298 169.267C338.361 171.056 328.399 172.699 318.424 174.252C313.553 175.011 309.626 173.254 306.78 169.162C303.718 164.76 300.498 160.473 297.149 156.289C295.143 153.784 294.073 150.912 293.448 147.093C291.35 151.27 291.442 154.91 292.309 158.674C293.401 163.416 294.388 168.171 293.619 173.101C292.506 180.232 289.607 186.404 284.254 191.367C282.538 192.959 280.843 194.594 279.245 196.163C279.789 197.558 280.891 197.606 281.789 197.879C293.979 201.586 306.356 204.374 319.059 205.673C321.568 205.93 322.461 205.125 322.527 202.71C322.681 197.052 321.711 191.539 320.593 186.038C319.642 181.357 320.073 180.74 324.871 179.847C327.691 179.321 330.536 178.958 333.375 178.577C340.437 177.63 345.483 181.15 347.18 188.145C348.284 192.693 347.583 197.335 347.788 201.93C347.877 203.931 347.143 206.281 350.739 206.18C356.569 206.015 360.932 207.975 360.932 207.975Z"
        fill="#CED4DA" />
    <path
        d="M55.7352 139C57.3498 139.979 57.9457 138.468 58.735 137.683C62.0339 134.401 63.4858 130.172 64.5798 125.799C65.6058 121.698 66.6442 117.608 68.6338 113.839C70.5379 110.231 72.2731 110.076 74.5094 113.469C79.7894 121.479 83.0074 130.277 84.2694 139.788C84.9567 143.347 84.8101 146.807 83.4067 150.226C82.1258 153.346 82.2722 156.738 81.9239 160.026C80.4946 165.808 81.4407 171.416 83.2923 176.921C85.9604 184.855 90.2624 191.925 96.1324 197.776C106.708 208.318 112.945 221.182 117.146 235.187C120.258 245.561 122.375 256.252 127.944 265.765C131.612 272.028 135.532 278.068 140.876 283.071C144.707 286.658 148.295 290.458 150.894 295.079C151.221 296.524 150.204 297.393 149.443 298.346C142.76 306.719 134.755 313.573 125.534 319.004C124.138 319.826 122.727 320.619 121.387 321.536C116.284 324.203 110.954 326.297 105.407 327.826C103.985 328.217 102.527 328.816 101.129 327.719C90.6071 320.358 85.7572 309.474 82.5929 297.611C79.1437 284.68 78.1065 271.444 78.264 258.121C78.3149 253.814 77.4099 249.445 78.7385 245.179C80.0155 246.247 79.867 247.528 79.3468 248.818C90.4265 238.663 92.0326 225.349 84.5458 214.25C83.3643 214.766 83.6387 215.876 83.5988 216.765C83.3913 221.395 81.8179 225.769 81.1187 230.305C81.0095 231.014 80.7388 231.787 79.734 231.734C79.4665 231.413 79.4647 230.139 78.7283 231.389C74.9873 237.74 69.556 242.407 63.6714 246.641C59.273 249.805 57.1321 254.183 56.3938 259.514C54.7969 271.044 49.7499 280.471 39.2372 286.351C37.2313 284.576 37.5415 282.153 37.405 279.854C37.0418 275.455 38.1479 271.595 41.0059 268.084C43.0604 265.561 44.0861 262.369 44.6598 259.169C46.1969 250.594 47.6568 242.002 48.81 233.366C49.3755 229.131 48.0967 227.394 43.8107 226.022C41.4619 225.557 39.2746 224.65 37.141 223.591C28.2705 218.934 24.4798 211.409 24.7633 201.601C24.7989 200.369 24.736 199.093 25.7153 198.115C27.6944 196.423 29.1816 194.259 31.1002 192.489C39.8644 184.405 53.3189 184.51 61.8283 192.791C62.3632 193.311 62.8689 193.863 63.4279 194.357C66.271 196.869 67.3169 196.487 68.1889 192.623C69.834 185.982 67.9198 179.794 65.7095 173.672C64.7423 170.994 62.5821 169.203 60.393 167.542C53.9018 162.616 50.2951 156.326 50.9088 147.972C50.9257 146.61 50.9015 145.243 51.2417 143.908C52.0895 141.68 53.8481 140.281 55.7352 139Z"
        fill="#CF7A76" />
    <path
        d="M303.376 35.1306C301.165 45.4742 299.95 55.8942 300.306 66.5107C300.59 75.0033 301.993 83.317 304.416 91.3731C306.778 99.2252 305.509 99.1572 300.024 104.278C299.405 104.855 298.51 105.137 298.13 105.995C295.02 109.86 290.545 111.864 286.497 114.424C281.143 117.808 275.323 120.327 269.623 123.056C268.32 123.679 266.949 124.438 265.365 124.03C262.38 124.154 260.323 127.61 256.958 126.371C257.561 120.03 257.609 113.707 256.875 107.356C256.202 101.532 256.9 95.6465 256.451 89.7978C256.303 87.8665 257.547 86.8646 259.15 86.1954C260.877 85.4744 262.688 84.9853 264.435 84.3195C269.746 82.2952 272.603 76.0475 270.688 70.7953C269.963 68.8067 268.501 69.5438 267.258 69.8135C259.22 71.559 251.18 73.3025 243.14 75.043C241.33 75.435 239.536 76.1221 237.631 75.5717C238.246 67.9289 238.879 60.3012 240.484 52.7677C242.191 44.755 247.598 40.7839 256.941 40.1164C264.935 39.5452 272.96 38.8893 280.841 37.2303C281.94 36.2388 283.317 36.2024 284.686 36.0517C289.635 35.5068 294.568 34.8221 299.535 34.4474C300.86 34.3474 302.282 33.8618 303.376 35.1306Z"
        fill="#CED4DA" />
    <path
        d="M101.128 327.719C108.415 326.701 114.877 323.309 121.58 320.611C122.754 320.118 123.946 319.982 125.23 320.147C142.216 322.318 154.994 315.192 164.802 301.906C172.019 292.129 176.144 280.917 179.205 269.269C179.774 267.101 180.122 264.861 181.029 262.799C182.891 258.565 186.622 257.026 190.666 258.747C191.37 260.084 190.911 261.431 190.681 262.766C189.073 272.098 187.15 281.36 184.439 290.441C177.994 312.66 169.264 333.869 156.478 353.267C153.773 357.37 150.709 361.071 145.433 361.919C145.175 362.138 144.917 362.357 144.66 362.575C132.434 363.972 120.661 362.615 109.624 356.796C105.184 354.455 101.407 351.295 97.9347 347.683C91.2668 340.747 91.8238 332.079 101.128 327.719Z"
        fill="#6C757D" />
    <path
        d="M26.431 198.115C23.5459 207.454 27.9736 217.194 37.7145 222.935C39.8555 225.485 39.0983 228.434 38.55 231.172C37.424 236.792 35.8349 242.302 32.9022 247.309C28.726 254.439 22.5765 258.286 14.2287 258.209C9.80039 258.168 5.23789 258.913 1.09766 256.525C3.27259 244.321 7.52683 232.65 10.3024 220.606C11.3349 216.126 10.8144 211.506 10.4014 206.92C9.81234 200.379 9.16855 193.714 10.6388 187.289C12.8395 177.671 18.0573 169.519 24.5889 162.208C26.3033 160.289 28.4649 158.739 29.3863 156.191C34.49 150.882 40.739 147.195 47.1501 143.765C48.6114 142.983 50.238 141.97 51.8948 143.531C51.8489 145.053 51.8029 146.576 51.7569 148.098C50.7239 155.722 53.2885 162.462 56.9653 168.892C59.1575 172.726 60.6585 176.713 60.4273 181.204C60.3579 182.552 60.434 183.963 59.1816 184.919C57.6219 185.622 56.3109 184.767 54.941 184.239C45.0087 180.417 33.8642 184.578 28.8953 193.986C28.1441 195.408 27.4583 196.861 26.431 198.115Z"
        fill="#CED4DA" />
    <path
        d="M190.234 258.617C184.414 258.649 182.575 260.056 181.141 265.807C177.808 279.17 173.492 292.121 165.079 303.283C155.963 315.378 144.125 322.199 128.605 321.5C126.255 321.394 123.922 320.918 121.58 320.612C129.655 315.475 137.639 310.213 144.121 303.041C146.361 300.562 148.474 297.967 150.646 295.425C150.242 293.515 151.786 292.501 152.668 291.237C156.241 286.115 159.266 280.687 162.082 275.122C163.287 272.741 162.695 271.596 160.256 270.643C151.482 267.211 144.106 261.852 138.504 254.187C137.696 253.082 136.805 252.016 136.795 250.536C137.047 249.09 138.294 248.646 139.354 248.038C149.318 242.323 157.771 234.943 164.325 225.457C164.883 224.649 165.374 223.737 166.474 223.514C168.656 224.9 170.351 226.884 172.275 228.558C175.16 231.068 175.715 229.314 176.022 227.017C176.374 224.38 177.743 222.789 180.114 221.877C181.377 219.813 183.117 220.495 184.707 221.222C188.166 222.805 191.232 224.887 192.854 228.551C194.308 232.519 193.831 236.646 193.578 240.681C193.286 245.36 192.643 250.028 192.003 254.682C191.804 256.137 191.588 257.651 190.234 258.617Z"
        fill="#CED4DA" />
    <path
        d="M196.292 206.921C196.413 203.886 194.786 200.998 195.537 197.911C196.907 195.27 199.403 193.728 201.56 191.888C204.175 189.657 205.178 186.919 204.82 183.589C202.58 162.801 200.595 141.987 198.509 121.184C196.386 100.01 194.306 78.8304 192.173 57.6571C190.514 41.1905 189 24.7098 187.325 8.24476C187.088 5.92295 185.705 3.07976 188.827 1.38116C190.858 3.8951 192.706 6.58771 194.956 8.88655C199.962 14.0005 201.63 20.2637 202.293 27.146C205.163 56.9605 208.22 86.7571 211.159 116.565C213.525 140.562 215.817 164.565 218.151 188.565C218.68 194.009 219.244 199.449 219.792 204.89C219.527 206.098 218.538 206.427 217.547 206.514C211.35 207.058 205.145 207.517 198.942 207.993C197.942 208.07 196.946 207.844 196.292 206.921Z"
        fill="#6C757D" />
    <path
        d="M188.827 1.38119C187.1 3.22554 188.105 5.42911 188.288 7.3697C190.171 27.4145 192.172 47.4486 194.204 67.4792C196.599 91.0937 199.073 114.7 201.483 138.313C203.009 153.273 204.451 168.241 205.993 183.198C206.407 187.218 205.548 190.515 202.018 192.97C199.796 194.516 197.995 196.649 195.537 197.911C194.809 191.274 194.066 184.639 193.357 178.001C192.399 169.024 191.435 160.047 190.531 151.064C189.688 142.69 188.942 134.305 188.113 125.929C187.188 116.574 186.196 107.226 185.273 97.8718C184.447 89.4951 183.708 81.1096 182.869 72.7343C181.957 63.6279 180.744 54.5452 180.087 45.4216C179.482 37.0174 177.78 28.6675 178.415 20.198C178.839 14.5346 182.498 10.131 184.758 5.18641C185.426 3.72419 186.304 2.35117 187.158 0.982474C188.031 -0.415533 188.445 0.509014 188.827 1.38119Z"
        fill="#CED4DA" />
    <path
        d="M358.092 192.823C358.101 196.558 358.027 200.295 358.15 204.026C358.22 206.183 357.628 207.226 355.24 207.113C352.553 206.986 348.999 208.28 347.379 206.995C345.565 205.555 347.029 201.861 346.865 199.153C346.639 195.435 347.027 191.692 346.133 188C344.729 182.205 340.307 178.856 334.385 179.469C330.805 179.84 327.253 180.478 323.69 181.004C321.564 181.318 320.519 181.969 321.252 184.625C323.009 190.996 323.758 197.55 323.601 204.186C323.565 205.747 323.729 207.266 321.366 207.01C306.131 205.363 291.188 202.427 276.383 197.11C278.592 195.195 280.592 193.562 282.48 191.807C291.828 183.118 294.821 172.546 291.541 160.256C290.062 154.714 290.102 149.509 294.101 144.17C294.709 155.837 303.88 161.962 309.19 170.363C311.191 173.53 315.069 173.875 318.701 173.265C328.498 171.619 338.277 169.869 348.081 168.27C349.724 168.002 351.144 167.292 352.667 166.783C355.6 175.228 357.309 183.929 358.092 192.823Z"
        fill="#6C757D" />
    <path
        d="M335.524 3.68643C345.39 8.12085 350.632 15.9463 351.923 26.4854C353.259 37.3932 351.115 47.5662 344.83 56.7149C342.898 59.527 341.424 62.5165 340.95 65.9192C339.918 73.3143 344.955 78.3132 352.307 77.1948C354.15 76.9145 355.965 76.4349 357.811 76.1922C360.944 75.7804 362.528 77.7924 361.501 80.7676C357.32 92.8764 338.888 99.6327 327.867 93.0963C320.341 88.6324 317.174 79.599 319.362 69.0595C320.587 63.1637 323.342 57.8078 325.18 52.1307C326.308 50.1813 327.762 48.5044 329.286 46.8441C334.984 40.6395 337.888 33.2724 338.29 24.8508C338.586 18.6648 337.815 12.676 335.663 6.86214C335.286 5.84492 334.681 4.78178 335.524 3.68643Z"
        fill="#E00007" />
    <path
        d="M335.523 3.68642C339.719 14.1059 340.98 24.6528 337.21 35.5237C334.859 42.3035 330.73 47.7117 325.179 52.1312C325.781 48.962 326.073 45.8276 325.235 42.6125C322.323 31.4449 312.818 28.1621 303.375 35.1305C295.841 35.5878 288.42 37.2603 280.841 37.2302C282.084 33.0778 283.557 28.9782 284.525 24.7628C287.296 12.7042 294.585 5.13733 306.529 2.074C316.348 -0.444736 326.094 -1.07611 335.523 3.68642Z"
        fill="#FF595E" />
    <path
        d="M80.9925 160.77C80.8003 155.651 81.7248 150.706 83.6151 145.979C84.4397 143.917 84.0201 141.843 84.2693 139.787C84.7751 142.233 85.7058 143.327 88.7558 143.64C102.231 145.026 113.658 151.215 123.78 160.002C124.573 161.002 124.34 162.099 124.093 163.203C121.432 175.1 113.782 183.612 104.983 191.336C104.417 191.833 103.664 192.012 102.885 191.944C101.569 191.747 100.666 190.87 99.7834 189.995C95.3655 185.615 90.7081 181.44 86.6624 176.733C82.8128 172.254 80.085 167.08 80.9925 160.77Z"
        fill="#CED4DA" />
    <path
        d="M237.631 75.5718C245.054 73.0397 252.856 72.1124 260.423 70.1836C263.552 69.3862 266.729 68.7815 269.883 68.0831C271.05 67.8247 272.188 67.5792 272.128 69.4062C272.03 72.3885 272.337 75.4504 271.758 78.3352C270.877 82.7258 267.396 84.6428 263.347 85.8615C257.304 87.6799 257.337 87.7676 257.565 93.973C257.921 103.676 258.287 113.379 258.598 123.083C258.64 124.396 259.479 126.269 256.958 126.371C253.364 126.021 249.774 125.621 246.175 125.339C243.403 125.121 242.033 123.982 241.795 120.956C240.718 107.299 239.425 93.659 238.194 80.0146C238.06 78.5288 237.821 77.0525 237.631 75.5718Z"
        fill="black" />
    <path
        d="M265.365 124.03C276.862 119.063 287.784 113.052 298.13 105.995C300.158 111.743 302.187 117.491 304.215 123.24C303.952 123.49 303.72 123.91 303.421 123.965C285.986 127.181 273.872 138.705 262.33 150.804C257.457 155.912 255.068 162.614 254.635 169.832C254.558 171.107 255.002 172.688 253.245 173.339C241.493 160.995 244.806 148.955 256.492 138.181C258.58 136.256 261.183 135.428 263.914 135.003C265.851 134.701 266.631 133.939 266.194 131.789C265.679 129.251 265.621 126.62 265.365 124.03Z"
        fill="#6C757D" />
    <path
        d="M129.758 165.163C136.062 171.222 141.226 178.162 145.611 185.701C146.295 186.878 146.957 188.068 147.63 189.251C145.21 198.115 139.308 204.374 132.096 209.502C128.592 211.994 125.238 214.925 120.765 215.728C119.814 215.554 119.301 214.854 118.855 214.096C115.898 209.068 112.724 204.19 109.047 199.648C108.353 198.791 107.712 197.84 107.775 196.629C109.086 193.987 111.453 192.267 113.486 190.289C120.027 183.923 124.956 176.551 128.008 167.936C128.379 166.888 128.684 165.776 129.758 165.163Z"
        fill="#CED4DA" />
    <path
        d="M38.3701 279.66C38.6591 281.89 38.948 284.121 39.2371 286.351C41.3861 303.461 45.7027 319.655 59.1947 331.735C64.6133 336.586 71.1078 339.351 78.3356 340.294C80.7088 340.603 82.8258 341.223 83.2236 344.003C83.6563 347.027 81.1335 348.738 77.3766 348.169C60.2034 345.569 48.4588 335.75 40.7175 320.624C35.7868 310.991 33.1053 300.673 31.5918 290.014C28.8687 286.734 30.1438 282.587 29.1759 278.925C29.2573 275.358 29.0404 271.801 28.7402 268.248C30.4784 264.559 34.3087 262.79 36.677 259.656C37.255 258.892 37.9866 259.449 38.3762 260.217C39.0864 264.383 39.1331 268.531 38.3285 272.702C37.8851 275 37.852 277.344 38.3701 279.66Z"
        fill="black" />
    <path
        d="M151.284 197.16C154.845 204.163 157.071 211.845 161.949 218.18C161.724 221.367 159.65 223.675 157.816 225.911C151.882 233.143 144.857 239.176 136.687 243.804C135.639 244.398 134.549 245.15 133.216 244.503C129.818 239.553 128.241 233.756 125.796 228.364C124.803 226.174 123.01 224.18 123.399 221.481C124.021 220.322 125.139 219.717 126.222 219.143C135.597 214.166 143.476 207.535 149.221 198.514C149.694 197.771 150.268 197.109 151.284 197.16Z"
        fill="#CED4DA" />
    <path
        d="M37.6887 259.394C35.4041 262.579 32.7977 265.44 29.4597 267.564C28.7015 268.57 27.7904 269.374 26.5835 269.813C21.4115 271.692 16.0537 272.438 10.5753 272.426C9.56642 272.423 8.6194 272.148 7.85612 271.426C1.90578 270.475 -0.624655 267.087 0.264812 261.26C0.507586 259.676 0.818228 258.103 1.09764 256.525C4.79811 256.796 8.49459 257.151 12.1996 257.32C22.6399 257.797 29.818 252.964 33.7284 243.443C36.4093 236.915 38.8416 230.244 37.714 222.934C39.7007 223.638 41.6869 224.34 43.673 225.043C45.9189 226.038 46.2799 227.833 45.7426 229.985C43.7002 238.164 42.3264 246.489 40.3318 254.678C39.8962 256.466 39.4914 258.34 37.6887 259.394Z"
        fill="#6C757D" />
    <path
        d="M51.8948 143.531C50.4149 143.03 49.2178 143.849 48.0077 144.433C42.261 147.205 36.9273 150.619 32.0168 154.709C31.2733 155.329 30.8271 156.726 29.3862 156.191C30.3544 147.892 28.9035 139.522 30.1743 131.223C30.8714 126.67 31.6775 122.154 33.1337 117.779C34.1883 114.611 35.3522 114.217 37.9138 116.29C45.5798 122.495 51.3453 130.212 55.7348 138.999C55.6124 141.492 52.8548 141.749 51.8948 143.531Z"
        fill="#7F4242" />
    <path
        d="M237.58 205.575C236.188 211.569 234.795 217.562 233.403 223.556C229.864 225.863 225.775 225.184 221.907 225.605C215.803 226.268 209.72 227.313 203.54 226.983C199.561 219.184 202.415 211.711 210.467 209.179C215.912 207.467 221.329 205.599 227.034 204.867C230.014 204.563 232.995 204.26 235.976 203.957C237.469 203.546 238.077 204.013 237.58 205.575Z"
        fill="#E00007" />
    <path
        d="M227.033 204.867C222.131 206.955 217.02 208.458 211.872 209.711C203.239 211.811 202.238 216.502 203.502 223.495C203.694 224.558 203.693 225.436 203.124 226.321C199.494 228.512 195.591 228.641 191.567 227.847C188.506 224.405 185.558 220.747 180.114 221.878C180.058 219.267 179.906 216.654 179.968 214.046C180.063 210.075 181.969 208.146 185.889 207.813C189.357 207.519 192.824 207.219 196.292 206.921C204.137 206.385 212.009 206.159 219.791 204.889C222.206 204.883 224.62 204.875 227.033 204.867Z"
        fill="#FF595E" />
    <path
        d="M133.627 244.425C145.406 238.2 155.15 229.779 161.949 218.18C163.457 219.958 164.966 221.736 166.474 223.514C160.079 234.474 150.745 242.348 139.989 248.729C139.03 249.297 138.087 249.892 137.136 250.474C134.727 249.177 133.303 247.308 133.627 244.425Z"
        fill="#6C757D" />
    <path
        d="M129.759 165.163C126.265 178.262 118.136 188.149 107.957 196.614C105.152 196.015 103.423 194.348 102.882 191.502C112.51 184.47 119.686 175.641 122.981 163.99C123.349 162.689 123.519 161.332 123.78 160.002C126.025 161.431 127.986 163.187 129.759 165.163Z"
        fill="#6C757D" />
    <path
        d="M79.7341 231.734C80.7738 226.053 82.7771 220.533 82.5669 214.641C82.5319 213.661 82.4724 212.567 83.8523 212.338C84.8964 212.165 85.4442 212.793 85.8955 213.604C92.1787 224.896 92.5984 239.305 79.0147 249.984C78.9164 248.27 78.8276 246.724 78.7388 245.178C79.0705 240.697 79.4023 236.216 79.7341 231.734Z"
        fill="#7F4242" />
    <path
        d="M151.284 197.16C144.624 208.072 135.366 216.022 123.766 221.303C121.081 220.164 120.185 218.121 120.75 215.338C132.097 209.616 141.869 202.273 146.873 190.005C146.997 189.701 147.372 189.5 147.63 189.251C148.848 191.888 150.066 194.524 151.284 197.16Z"
        fill="#6C757D" />
    <path
        d="M7.85628 271.426C15.3009 271.502 22.5846 270.677 29.4598 267.565C30.3249 271.327 30.3026 275.145 30.1772 278.971C29.603 279.997 28.7193 280.659 27.6098 280.958C21.2863 282.665 14.952 284.276 8.41822 281.949C6.85779 278.515 8.06565 274.932 7.85628 271.426Z"
        fill="#7F4242" />
    <path
        d="M351.973 150.206C349.939 150.883 348.129 149.731 346.247 149.394C338.237 147.959 330.449 149.04 322.717 151.08C321.271 151.461 319.867 152.164 318.413 150.373C324.322 145.854 330.859 142.814 338.072 141.264C340.926 140.651 343.856 139.591 346.773 141.151C348.506 144.169 350.239 147.188 351.973 150.206Z"
        fill="#6C757D" />
    <path
        d="M8.41797 281.949C15.8234 282.069 23.1867 281.881 30.1771 278.971C30.6489 282.653 31.1208 286.336 31.5922 290.017C28.5439 290.436 25.4967 290.863 22.448 291.278C16.0024 292.157 10.0894 288.223 8.41797 281.949Z"
        fill="#CF7A76" />
    <path
        d="M145.433 361.919C154.019 358.176 157.519 350.031 161.809 342.684C171.215 326.575 177.972 309.329 183.12 291.431C183.184 291.207 183.396 291.025 183.539 290.824C184.846 291.525 185.291 292.875 185.836 294.082C188.708 300.448 192.957 305.568 199.066 309.07C199.918 309.558 200.739 310.12 201.4 310.874C201.801 311.36 202.16 311.893 202.279 312.504C203.838 320.481 209.57 323.905 216.716 325.851C218.852 326.433 221.173 326.572 222.947 328.162C228.602 337.764 231.98 348.189 234.094 359.068C234.281 360.028 234.507 361.03 233.798 361.914C229.08 361.981 224.362 362.102 219.643 362.106C196.519 362.126 173.394 362.119 150.269 362.106C148.657 362.106 147.045 361.984 145.433 361.919Z"
        fill="#7F4242" />
    <path
        d="M200.782 311.034C192.118 306.785 186.641 299.818 183.54 290.824C185.94 280.743 188.313 270.656 190.121 260.447C190.227 259.849 190.2 259.228 190.234 258.617C191.496 250.806 192.419 242.959 192.819 235.05C192.947 232.53 192.74 230.119 191.568 227.848C195.343 226.769 199.285 226.943 203.123 226.321C213.217 225.399 223.31 224.478 233.403 223.556C230.68 240.133 229.01 256.757 230.709 273.582C231.346 279.884 232.481 286.089 233.676 292.293C230.49 292.71 228.485 290.477 226.185 288.93C224.851 288.034 223.613 287.005 222.373 285.979C220.895 284.478 219.528 282.875 218.009 281.414C212.333 275.955 204.617 277.666 202.049 285.165C199.968 291.242 199.98 297.547 200.757 303.899C201.043 306.239 202.535 308.66 200.782 311.034Z"
        fill="black" />
    <path
        d="M223.232 285.678C226.713 287.884 229.632 290.977 233.676 292.293C237.572 306.974 243.425 320.717 252.727 332.88C261.634 344.525 272.445 353.877 285.4 360.753C285.876 361.005 286.678 360.939 286.78 361.915C269.092 361.915 251.445 361.915 233.798 361.914C231.643 350.194 227.663 339.088 222.492 328.384C224.991 326.757 227.552 328.395 230.08 328.254C231.032 328.2 232.188 329.075 232.893 328.15C233.578 327.25 232.686 326.272 232.285 325.403C227.223 314.456 224.103 302.958 222.524 291.027C222.284 289.209 221.825 287.304 223.232 285.678Z"
        fill="#6C757D" />
    <path
        d="M120.75 215.338C121.44 217.486 122.333 219.531 123.766 221.303C127.053 229.01 130.34 236.717 133.627 244.424C134.797 246.442 135.967 248.458 137.136 250.475C142.97 259.971 151.256 266.48 161.689 270.177C164.295 271.101 164.57 272.06 163.43 274.405C159.826 281.821 155.805 288.962 150.647 295.424C135.479 279.628 122.105 263.02 117.529 240.531C114.227 224.308 106.699 209.858 94.8247 197.632C86.0435 188.59 80.0834 177.622 80.358 164.317C80.3827 163.123 79.974 161.804 80.9927 160.77C81.6663 167.862 84.5205 173.868 89.7416 178.779C94.1813 182.955 98.5046 187.255 102.881 191.501C104.574 193.206 106.265 194.909 107.957 196.614C112.638 202.57 116.959 208.774 120.75 215.338Z"
        fill="#7F4242" />
    <path
        d="M37.6887 259.394C41.2814 249.577 41.994 239.063 45.0179 229.109C45.5295 227.425 44.4608 226.285 43.6732 225.043C48.8203 225.9 50.5954 228.365 49.7971 233.533C48.4935 241.971 47.2729 250.424 45.8567 258.844C45.2565 262.413 44.1468 266.029 41.8362 268.772C39.0716 272.054 37.9542 275.529 38.3704 279.66C36.9385 275.568 38.0257 271.346 37.7513 267.192C37.5802 264.603 37.6996 261.994 37.6887 259.394Z"
        fill="#7F4242" />
    <path
        d="M58.6517 184.762C60.6773 179.395 59.055 174.549 56.3181 169.985C52.2419 163.188 49.9211 156.091 51.758 148.096C51.4206 156.387 54.8748 162.652 61.715 167.267C64.6622 169.255 66.6843 172.047 67.5752 175.611C68.9849 181.249 70.9393 186.82 69.1019 192.74C68.0658 193.891 66.6701 193.855 65.8488 192.896C63.4935 190.144 60.26 188.164 58.6517 184.762Z"
        fill="#6C757D" />
    <path
        d="M58.6517 184.762C61.1781 186.671 63.6361 188.679 65.3437 191.381C66.3128 192.915 67.5594 193.093 69.1022 192.741C69.2503 194.57 69.0789 196.31 67.1215 197.126C65.6101 197.755 64.5916 196.793 63.5493 195.811C50.8657 183.859 38.9972 184.464 27.5286 197.625C27.223 197.975 27.0924 198.606 26.4312 198.114C29.8927 185.014 43.5562 178.282 55.9372 183.578C56.8448 183.966 57.747 184.367 58.6517 184.762Z"
        fill="#7F4242" />
    <path
        d="M44.2009 206.991C42.3995 206.603 40.8646 205.498 40.7746 203.176C40.678 200.684 44.9665 196.396 47.2969 196.552C49.5973 196.706 50.986 197.984 51.0989 200.289C51.2219 202.797 46.9967 207.009 44.2009 206.991Z"
        fill="#7F4242" />
    <path
        d="M156.84 255.786C154.701 255.475 153.597 253.865 153.81 251.65C154.049 249.157 155.778 247.931 158.267 248.217C160.643 248.489 161.878 250.263 161.667 252.388C161.43 254.782 159.641 255.979 156.84 255.786Z"
        fill="#6C757D" />
    <path
        d="M104.465 168.013C106.734 168.17 108.07 169.376 108.073 171.779C108.077 174.355 106.693 175.709 104.132 175.66C101.503 175.611 100.337 174.05 100.455 171.539C100.568 169.109 102.032 168.042 104.465 168.013Z"
        fill="#6C757D" />
    <path
        d="M125.071 200.456C122.565 200.378 120.917 199.137 120.927 196.627C120.937 194.378 122.389 192.904 124.719 192.824C127.245 192.738 128.793 194.226 128.854 196.655C128.912 198.961 127.389 200.232 125.071 200.456Z"
        fill="#6C757D" />
    <path
        d="M137.22 225.757C137.688 223.052 139.033 221.387 141.475 221.502C143.861 221.614 145.467 223.253 145.262 225.718C145.085 227.853 143.75 229.486 141.349 229.459C138.812 229.431 137.694 227.739 137.22 225.757Z"
        fill="#6C757D" />
    <path
        d="M223.233 285.678C223.926 301.032 228.529 315.35 235.206 329.593C230.626 329.745 226.58 328.754 222.492 328.384C219.069 327.358 215.614 326.424 212.23 325.283C206.35 323.301 202.81 319.189 201.538 313.107C201.389 312.395 201.039 311.724 200.782 311.034C199.635 303.514 198.606 296.003 200.083 288.389C200.972 283.812 202.368 279.59 207.238 277.837C211.146 276.43 214.918 276.891 218.016 279.843C219.899 281.636 221.503 283.723 223.233 285.678Z"
        fill="#CED4DA" />
    <path
        d="M285.373 361.88C258.529 347.58 240.633 322.137 232.837 291.272C229.409 276.394 228.219 261.371 229.591 246.138C230.293 238.341 230.944 230.551 232.657 222.896C233.937 216.922 234.673 210.817 236.813 205.039C237.197 204.123 237.74 203.305 238.409 202.57C239.25 199.206 239.779 195.666 241.569 192.696C243.963 188.727 247.65 186.59 252.462 186.811L281.978 197.066C294.168 200.773 306.546 203.561 319.248 204.861L361.122 207.162C366.261 209.133 368.505 213.513 368.561 218.645C368.858 246.154 365.447 273.084 355.118 298.82C348.735 314.725 339.623 328.872 326.83 340.353C315.778 350.272 302.949 357.249 288.669 361.454C287.618 361.764 286.474 361.879 285.373 361.88Z"
        fill="#FF595E" />
    <path
        d="M353.245 267.13C353.381 267.636 353.456 267.758 353.435 267.86C350.631 280.991 350.345 279.896 336.309 281.803C327.924 282.942 319.432 283.269 310.981 282.108C308.389 281.751 308.483 283.718 308.24 285.16C306.878 293.247 305.694 301.365 304.329 309.451C302.114 322.574 299.259 335.557 295.794 348.412C295.169 350.73 293.931 351.778 291.775 352.055C288.94 352.417 286.098 352.558 282.972 352.082C285.372 343.69 287.563 335.416 289.433 327.059C292.693 312.493 294.895 297.744 297.338 283.034C297.698 280.864 296.726 280.623 294.992 280.31C276.798 277.028 259.187 271.815 242.375 264.05C237.099 261.613 235.249 256.528 237.393 251.137C238.22 249.056 239.29 250.15 240.284 250.626C248.265 254.442 256.411 257.843 264.768 260.76C275.009 264.334 285.518 266.839 296.116 269.057C298.849 269.63 299.382 268.127 299.606 266.134C300.705 256.375 301.782 246.612 302.813 236.845C303.557 229.799 304.285 222.749 304.868 215.688C305.022 213.829 305.601 213.589 307.376 213.711C315.831 214.294 316.183 214.248 315.444 222.58C314.115 237.561 312.405 252.51 310.647 267.448C310.363 269.861 310.574 270.698 313.18 270.969C325.346 272.237 337.255 270.697 349.096 268.114C350.423 267.824 351.74 267.489 353.245 267.13Z"
        fill="black" />
</svg>
