<svg width="384" height="384" viewBox="0 0 384 384" fill="none" xmlns="http://www.w3.org/2000/svg">
<g clip-path="url(#clip0_133_532)">
<path d="M200.605 0.0718994C207.778 2.33991 215.089 4.15213 222.065 7.06464C232.504 11.4227 242.664 16.535 253.848 18.9285C263.393 20.9712 272.822 21.4273 282.129 17.7326C284.898 16.6333 285.809 17.6582 284.991 21.0085C282.912 29.5172 279.065 37.1044 272.916 43.4351C269.359 47.0972 269.523 47.8149 274.527 49.3173C276.787 49.9957 279.119 50.4343 281.418 50.9817C281.634 53.3868 279.733 54.4366 278.264 55.639C265.832 65.8117 251.68 70.1013 235.673 67.9006C235.18 67.8327 234.684 67.9278 234.191 67.8759C227.348 64.7149 220.62 61.2655 213.12 59.7814C210.99 59.3599 208.581 59.5976 206.953 57.6562C205.62 52.7779 206.593 47.7947 206.296 42.8665C205.76 33.9355 197.857 27.908 189.174 29.8747C182.939 31.287 178.817 36.3496 178.448 42.9611C178.303 45.5426 178.866 48.1806 177.873 50.6997C177.005 51.8877 175.754 51.8097 174.511 51.6737C165.129 50.6467 153.232 39.5559 151.281 30.0299C156.194 13.5494 167.81 4.61597 184.068 0.903032C184.871 0.719837 185.869 1.05517 186.388 0.0718994H188.633C191.626 0.707945 194.619 0.707949 197.612 0.0718994H200.605Z" fill="#FF595E"/>
<path d="M150.458 238.751C150.218 236.205 147.771 235.568 146.253 234.356C136.099 226.249 125.799 218.322 115.456 210.455C112.849 208.472 111.576 206.051 111.564 202.869C111.551 199.138 111.334 195.388 111.626 191.679C111.904 188.169 110.893 186.728 107.171 187.057C103.592 187.374 99.9617 187.153 96.3547 187.11C95.1529 187.095 93.8372 187.487 92.8225 186.429C95.3332 184.431 98.2959 185.301 101.064 185.24C111.53 185.009 110.285 186.525 110.367 175.875C110.419 169.181 110.356 162.487 110.391 155.793C110.4 153.952 110.2 152.037 111.561 150.481C111.561 144.648 111.747 138.807 111.496 132.984C111.326 129.05 112.634 126.565 116.5 125.487C117.553 125.193 118.603 124.67 119.072 123.509C131.112 116.751 143.664 111.061 156.375 105.714C157.982 105.038 159.811 105.247 161.553 105.247C182.077 105.241 202.602 105.265 223.126 105.222C226.43 105.215 229.501 105.864 232.522 107.2C236.506 108.963 240.471 110.749 244.309 112.801C250.045 115.917 256.195 118.191 261.92 121.34C263.31 122.105 264.908 122.598 265.597 124.247C266.969 124.807 268.39 125.271 269.701 125.95C272.072 127.177 273.329 128.975 273.242 131.888C273.058 138.081 273.186 144.283 273.186 150.481C274.547 152.037 274.349 153.952 274.357 155.793C274.392 164.098 274.331 172.404 274.389 180.709C274.417 184.854 274.73 185.127 278.849 185.194C281.824 185.243 284.8 185.154 287.774 185.236C289.245 185.276 290.786 185.185 291.925 186.429C290.267 187.755 288.33 186.955 286.525 187.107C282.232 187.469 276.6 185.271 273.979 188.017C271.39 190.729 273.418 196.313 273.194 200.629C273.142 201.622 273.247 202.624 273.172 203.613C272.965 206.343 271.823 208.552 269.607 210.261C258.243 219.029 246.915 227.844 235.556 236.618C234.815 237.19 234.284 237.782 234.292 238.749C226.209 245.369 218.038 251.878 209.574 258.005C207.404 259.576 204.771 259.96 202.092 259.953C195.615 259.935 189.137 259.935 182.659 259.953C179.981 259.96 177.328 259.597 175.18 258.002C166.795 251.773 158.489 245.436 150.458 238.751V238.751Z" fill="#CED4DA"/>
<path d="M124.163 384.089C110.97 384.09 97.7703 384.356 84.587 384C75.6019 383.757 68.0657 380.47 61.6846 373.416C60.6671 372.292 59.7824 371.131 59.1687 369.756C59.4777 367.749 61.0111 368.605 62.0706 368.593C68.118 368.524 74.1118 369.415 80.1438 369.695C83.2164 369.837 85.7549 369.209 87.5796 366.608C89.8963 362.934 88.3782 358.689 89.3252 354.813C90.5882 347.919 92.3426 341.166 95.0718 334.692C96.831 331.009 98.2688 327.164 100.524 323.725C102.639 319.911 104.79 316.114 107.407 312.621C110.752 308.156 113.298 307.515 118.37 309.665C129.811 314.515 140.256 311.137 146.549 300.427C148.56 297.004 150.741 293.647 151.862 289.757C152.199 288.591 152.665 287.352 154.135 287.04C160.348 287.467 166.442 288.761 172.614 289.51C190.563 291.686 208.343 290.593 226.075 287.552C227.544 287.3 228.998 286.918 230.506 287.016C231.319 287.099 231.947 287.572 232.192 288.284C233.477 292.013 235.637 295.363 236.846 299.12C236.606 300.329 235.668 300.98 234.774 301.651C225.91 308.298 217.067 314.975 208.187 321.601C207.295 322.266 206.38 322.947 205.194 323.021C202.137 321.702 200.998 318.616 199.082 316.268C195.561 311.957 194.867 311.781 190.37 315.135C187.392 317.356 184.362 319.511 181.479 321.853C178.272 324.458 178.204 325.289 180.592 328.581C181.973 330.486 183.434 332.332 184.807 334.242C185.525 335.24 186.397 336.194 185.999 337.596C184.471 339.994 181.962 341.264 179.774 342.864C163.276 354.927 147.061 367.368 130.673 379.579C128.872 380.922 126.16 383.062 124.163 384.089Z" fill="#ADB5BD"/>
<path d="M153.472 287.393C150.8 296.243 146.994 304.48 138.946 309.688C132.842 313.639 126.084 314.078 119.362 311.104C112.73 308.17 111.248 308.486 107.119 314.677C105.057 317.767 103.105 320.93 101.103 324.061C98.9787 323.463 97.4901 321.879 95.9337 320.503C82.0572 308.236 66.1275 299.873 48.2382 295.179C46.8044 294.803 45.2825 294.598 44.2161 293.387C52.3557 276.912 64.0715 263.533 79.1709 253.106C83.4975 250.118 85.1362 246.394 84.1329 240.985C83.2837 236.407 83.5097 231.613 83.262 226.923C82.9534 221.081 88.7751 217.523 93.8324 220.322C105.994 227.054 117.561 234.713 128.134 243.785C129.282 244.77 130.43 245.67 131.811 246.271C135.498 248.051 137.851 251.36 140.579 254.177C145.502 259.262 150.159 264.681 152.75 271.365C154.748 276.517 156.71 281.902 153.472 287.393V287.393Z" fill="#CED4DA"/>
<path d="M325.58 369.381C321.307 377.15 313.985 380.213 305.909 382.067C301.886 382.991 297.781 382.853 293.685 382.851C252.486 382.838 210.699 384.007 169.5 384C167.884 384 165.116 384.042 163.5 384C163.415 382.68 166.078 380.696 166.966 380.024C177.388 372.138 187.874 364.337 198.442 356.648C198.848 356.353 199.321 356.188 199.816 356.098C202.655 356.29 203.47 358.829 204.84 360.608C210.114 367.457 210.073 367.498 216.909 362.367C219.285 360.583 221.703 358.852 224.03 357.005C226.841 354.773 226.997 353.72 224.974 350.795C223.778 349.065 222.43 347.44 221.21 345.725C220.359 344.529 219.338 343.372 219.524 341.723C220.05 340.038 221.548 339.257 222.818 338.315C232.976 330.775 242.94 322.976 253.255 315.647C254.868 314.501 256.496 313.352 257.816 311.84C261.533 311.004 265.152 309.903 268.705 308.475C272.339 307.014 274.898 309.149 276.969 311.805C279.788 315.421 282.037 319.415 284.242 323.427C286.547 326.809 287.705 330.761 289.663 334.318C292.371 340.798 294.19 347.53 295.423 354.432C296.35 358.323 294.874 362.565 297.174 366.252C299.006 368.87 301.56 369.456 304.622 369.315C310.649 369.039 316.639 368.15 322.681 368.218C323.74 368.229 325.273 367.376 325.58 369.381Z" fill="#ADB5BD"/>
<path d="M244.73 113.83C240.873 112.132 236.923 110.613 233.184 108.686C229.634 106.857 226.001 106.266 222.052 106.289C204.373 106.394 186.679 106.75 169.019 106.163C159.932 105.861 151.943 108.058 144.083 112.106C136.901 115.806 129.545 119.169 122.269 122.686C121.255 123.176 120.252 123.679 119.072 123.509C119.47 107.423 124.64 93.2015 135.071 80.7975C141.617 73.0128 149.656 67.4514 158.651 63.0407C159.56 61.3318 161.325 60.9443 162.917 60.3327C167.686 58.5007 172.736 57.8546 177.713 56.899C180.633 56.4954 183.554 56.4817 186.475 56.8617C192.745 57.8713 198.968 59.074 204.84 61.6321C225.909 70.8097 239.106 86.6649 244.789 108.84C245.195 110.425 246.084 112.19 244.73 113.83V113.83Z" fill="#ADB5BD"/>
<path d="M283.642 324.06C281.379 320.52 279.188 316.932 276.834 313.454C273.78 308.94 271.293 308.156 266.497 310.67C263.823 312.072 260.958 312.139 258.203 312.893C255.104 314.705 252.019 313.521 249.225 312.374C243.247 309.919 238.073 306.424 236.474 299.516C234.358 295.639 232.105 291.821 231.276 287.394C227.846 282.056 230.04 276.753 231.855 271.745C234.344 264.878 239.147 259.368 244.162 254.184C246.891 251.362 249.248 248.049 252.942 246.269C257.654 242.684 262.295 239 267.102 235.545C271.017 232.731 275.129 230.192 279.154 227.531C280.426 231.923 279.581 236.388 278.96 240.671C278.097 246.624 280.002 250.777 284.783 254.087C299.744 264.447 310.634 278.285 318.858 294.356C319.751 296.101 320.897 297.853 319.992 299.986C316.664 302.865 312.377 304.027 308.689 306.268C301.589 310.583 294.676 315.138 288.489 320.742C287.056 322.04 285.644 323.523 283.642 324.06V324.06Z" fill="#CED4DA"/>
<path d="M252.941 246.269C247.985 252.132 242.071 257.112 237.59 263.436C232.451 270.691 229.281 278.325 231.276 287.394C226.225 289.162 220.893 289.64 215.667 290.249C206.709 291.293 197.672 292.383 188.651 291.796C176.856 291.028 164.982 290.574 153.472 287.393C156.259 274.022 148.732 264.748 140.787 255.692C137.929 252.434 134.81 249.404 131.81 246.271C137.993 243.682 143.985 240.62 150.458 238.751C155.806 240.545 159.293 245.018 163.773 248.068C167.659 250.714 171.164 253.914 174.913 256.769C176.942 258.314 179.328 258.974 181.903 258.966C188.884 258.946 195.866 258.886 202.846 258.982C208.711 259.062 212.206 254.799 216.322 251.769C221.413 248.02 226.259 243.941 231.235 240.035C232.117 239.342 233.123 238.821 234.292 238.749C240.728 240.71 246.816 243.536 252.941 246.269V246.269Z" fill="#6C757D"/>
<path d="M95.8507 334.535C93.8542 341.273 91.8577 348.01 89.8611 354.747C85.9263 354.909 82.893 352.444 79.5813 350.984C65.4905 344.773 50.7695 341.147 35.5268 339.378C33.6253 339.157 31.88 340.024 30.0203 339.807C32.0558 327.26 35.1358 314.989 39.7088 303.112C46.2263 303.64 52.3087 305.923 58.2681 308.285C71.654 313.59 83.7728 320.988 93.7813 331.527C94.6271 332.418 95.6436 333.201 95.8507 334.535V334.535Z" fill="#CED4DA"/>
<path d="M319.563 300.111C319.29 294.447 315.605 290.269 312.912 285.793C305.302 273.144 295.501 262.453 283.172 254.13C278.545 251.006 276.955 246.501 278.021 240.805C278.833 236.462 278.807 231.962 279.154 227.531C282.802 224.489 287.035 222.35 291.207 220.223C296.213 217.671 301.531 221.123 301.551 226.877C301.568 231.821 301.364 236.815 300.659 241.7C299.936 246.716 301.44 250.306 305.565 253.116C320.754 263.459 332.431 276.878 340.525 293.393C339.814 294.381 338.709 294.662 337.631 294.919C332.55 296.131 327.615 297.776 322.774 299.726C321.762 300.134 320.714 300.67 319.563 300.111V300.111Z" fill="#ADB5BD"/>
<path d="M199.906 356.614C188.337 365.318 175.069 375.296 163.5 384C150.1 384.04 137.4 383.96 124 384C127.855 379.733 133.829 375.709 138.35 372.293C154.03 360.447 169.834 348.765 185.591 337.02C187.282 336.821 187.964 338.144 188.768 339.197C192.156 343.636 195.498 348.11 198.812 352.604C199.666 353.762 200.812 354.934 199.906 356.614Z" fill="#6C757D"/>
<path d="M244.73 113.83C240.691 86.4234 218.224 63.1298 191.405 58.5116C189.977 58.2656 188.374 58.967 187.121 57.7493C187.709 57.0216 188.529 56.7115 189.407 56.6616C194.608 56.3662 199.812 56.3818 205.014 56.6492C205.905 56.695 206.682 57.0926 207.366 57.6637C216.948 59.2422 226.053 62.1525 234.349 67.3212C237.198 67.4237 238.948 69.5379 241.03 71.0138C246.037 74.5648 249.97 79.1787 253.621 84.0451C254.424 85.1157 255.353 86.1874 255.265 87.6865C260.637 96.7121 264.248 106.334 265.399 116.844C265.67 119.325 265.673 121.776 265.598 124.247C258.641 120.774 251.686 117.302 244.73 113.83V113.83Z" fill="#6C757D"/>
<path d="M111.561 150.481C111.561 161.266 111.477 172.051 111.619 182.834C111.655 185.583 110.89 186.545 108.067 186.437C102.993 186.242 97.9054 186.411 92.823 186.429C87.11 185.922 84.0312 182.776 83.9281 177.067C83.825 171.359 83.8405 165.646 83.9237 159.936C84.0029 154.512 87.9075 150.579 93.3125 150.501C99.3942 150.412 105.478 150.481 111.561 150.481V150.481Z" fill="#6C757D"/>
<path d="M291.925 186.429C286.719 186.411 281.51 186.285 276.308 186.423C273.841 186.489 273.12 185.61 273.143 183.207C273.244 172.299 273.186 161.39 273.186 150.481C279.017 150.48 284.849 150.455 290.68 150.485C296.845 150.517 300.665 154.147 300.813 160.33C300.948 165.909 300.924 171.496 300.819 177.077C300.713 182.778 297.632 185.923 291.925 186.429V186.429Z" fill="#6C757D"/>
<path d="M255.265 87.6865C249.596 79.559 242.861 72.5277 234.349 67.3217C238.603 67.3519 242.891 67.7424 247.105 67.3467C260.493 66.0896 272.286 61.2683 281.418 50.9817C284.386 50.745 287.366 51.215 290.345 50.5803C293.171 49.9783 294.162 51.1359 293.079 53.8276C289.65 62.3569 284.785 69.9691 277.939 76.1819C271.446 82.074 263.762 85.7034 255.265 87.6865V87.6865Z" fill="#E00007"/>
<path d="M88.355 366.749C87.0576 370.498 84.0433 370.904 80.68 370.774C73.5057 370.499 66.3819 369.196 59.169 369.718C55.1303 368.441 50.8929 368.675 46.7607 368.341C43.5709 368.083 40.371 367.841 37.2132 367.38C32.6998 366.722 29.3496 362.644 29.2631 357.979C29.2102 355.132 29.289 352.282 29.3087 349.433C31.4574 347.931 33.8897 348.372 36.1812 348.67C53.4859 350.916 70.0331 355.629 85.3841 364.119C86.5649 364.772 87.9247 365.241 88.355 366.749V366.749Z" fill="#CED4DA"/>
<path d="M345.032 303.864C350.107 314.785 352.533 326.4 354.041 338.255C351.174 340.196 347.772 339.434 344.643 339.998C340.39 340.765 336.149 341.983 331.739 341.606C331.198 341.247 330.858 340.716 330.757 340.101C329.12 330.102 326.427 320.356 323.721 310.611C323.944 309.343 324.914 308.756 325.963 308.371C331.295 306.412 336.654 304.531 342.233 303.372C343.227 303.165 344.199 303.132 345.032 303.864V303.864Z" fill="#ADB5BD"/>
<path d="M345.032 303.864C337.787 305.31 330.684 307.204 324.048 310.561C321.95 313.054 318.747 313.653 316.066 315.122C307.534 319.797 299.618 325.247 292.807 332.249C291.761 333.324 290.899 334.983 288.897 334.539C286.575 331.332 285.564 327.467 283.642 324.06C291.326 316.199 300.238 309.974 309.812 304.689C312.945 302.959 316.071 301.119 319.563 300.112C326.279 297.024 333.216 294.628 340.525 293.393C342.099 296.852 344.472 299.968 345.032 303.864V303.864Z" fill="#6C757D"/>
<path d="M95.8507 334.535C90.0286 329.185 84.3222 323.744 77.6412 319.37C67.1674 312.513 55.8675 307.72 43.7839 304.655C42.3607 304.294 40.8542 304.192 39.709 303.112C41.2112 299.87 42.7136 296.628 44.2161 293.387C61.5063 296.785 76.8403 304.45 90.7999 314.987C94.4441 317.738 98.0894 320.56 101.103 324.061C99.3525 327.552 97.6016 331.044 95.8507 334.535V334.535Z" fill="#6C757D"/>
<path d="M331.536 341.264C338.98 339.829 346.39 338.147 354.041 338.256C354.924 341.944 355.675 345.65 355.435 349.478C354.583 350.318 353.501 350.503 352.374 350.545C346.063 350.779 339.929 352.159 333.781 353.418C322.608 355.755 312.064 359.813 301.916 364.996C300.207 365.869 298.604 367.343 296.395 366.745C295.717 366.402 295.046 365.921 295.025 365.155C294.927 361.687 294.924 358.217 294.887 354.748C295.339 353.248 296.692 352.753 297.896 352.163C307.531 347.442 317.551 343.763 327.965 341.174C329.139 340.882 330.37 340.357 331.536 341.264V341.264Z" fill="#6C757D"/>
<path d="M88.355 366.749C73.9504 358.604 58.5269 353.319 42.2534 350.514C37.9893 349.78 33.6696 349.227 29.3081 349.434C29.5458 346.224 29.7828 343.015 30.0201 339.807C31.3623 337.678 33.5226 338.123 35.4041 338.343C50.729 340.136 65.642 343.541 79.7258 350.054C83.105 351.617 86.4828 353.183 89.8612 354.747C89.6593 358.786 91.1621 363.038 88.355 366.749Z" fill="#6C757D"/>
<path d="M177.399 57.8333C171.024 59.1164 164.662 60.4461 158.651 63.0406C150.416 53.3272 147.531 42.4191 151.28 30.0299C153.603 33.4862 155.193 37.4017 157.986 40.5679C163.13 46.3978 169.233 50.4115 177.222 50.9515C179.205 53.1959 178.812 55.5015 177.399 57.8333V57.8333Z" fill="#E00007"/>
<path d="M296.395 366.745C308.027 360.513 320.07 355.341 333.028 352.523C335.865 358.664 334.213 366.017 329.338 368.942C328.023 368.901 326.733 368.981 325.58 369.719C318.366 369.196 311.241 370.5 304.065 370.775C300.703 370.904 297.685 370.502 296.395 366.745V366.745Z" fill="#CED4DA"/>
<path d="M329.338 368.942C334.526 364.358 332.798 358.22 333.028 352.523C340.41 350.867 347.794 349.219 355.435 349.479C355.669 352.177 356.364 354.931 356.045 357.563C355.248 364.142 351.631 367.206 343.764 368.099C338.985 368.642 334.148 368.678 329.338 368.942V368.942Z" fill="#ADB5BD"/>
<path d="M177.398 57.8334C177.34 55.5393 177.282 53.2453 177.223 50.9514C177.271 48.2147 177.291 45.477 177.376 42.7412C177.629 34.6055 184.205 28.4409 192.55 28.4903C200.625 28.5381 207.163 34.7531 207.352 42.7231C207.471 47.7007 207.369 52.6836 207.366 57.6639C200.618 57.6922 193.869 57.7206 187.121 57.7492C183.88 57.7774 180.639 57.8054 177.398 57.8334V57.8334Z" fill="#6C757D"/>
<path d="M186.67 169.328C186.671 158.245 186.635 147.162 186.687 136.079C186.71 131.22 188.32 128.923 191.723 128.65C194.89 128.396 197.05 129.742 197.728 132.94C198.009 134.265 198.063 135.658 198.065 137.02C198.084 158.439 198.082 179.858 198.069 201.277C198.069 202.518 197.999 203.766 197.859 204.999C197.495 208.199 195.548 209.924 192.458 210.175C189.62 210.405 187.3 208.092 186.863 204.807C186.684 203.456 186.679 202.076 186.677 200.709C186.663 190.249 186.669 179.789 186.67 169.328V169.328Z" fill="black"/>
<path d="M212.579 169.347C212.579 163.254 212.54 157.16 212.593 151.068C212.628 147.043 214.825 144.527 218.153 144.506C221.487 144.486 223.769 147.007 223.783 150.998C223.829 163.183 223.825 175.369 223.787 187.555C223.774 191.647 221.655 194.027 218.224 194.046C214.764 194.066 212.628 191.704 212.593 187.625C212.539 181.533 212.579 175.44 212.579 169.347V169.347Z" fill="black"/>
<path d="M160.946 169.204C160.947 163.236 160.917 157.268 160.957 151.3C160.985 147.038 163.21 144.441 166.656 144.509C169.99 144.575 172.142 147.071 172.155 151.133C172.194 163.193 172.192 175.254 172.157 187.314C172.145 191.673 170.017 194.1 166.444 194.041C162.923 193.983 160.972 191.557 160.953 187.108C160.927 181.14 160.946 175.172 160.946 169.204V169.204Z" fill="black"/>
<path d="M146.196 169.499C146.196 172.489 146.308 175.483 146.164 178.466C146.017 181.523 144.222 183.296 141.192 183.502C138.027 183.717 135.698 182.248 135.372 179.009C134.723 172.563 134.708 166.068 135.374 159.627C135.701 156.473 138.032 154.813 141.184 155.063C144.134 155.296 146.008 157.116 146.162 160.159C146.319 163.265 146.197 166.385 146.196 169.499V169.499Z" fill="black"/>
<path d="M238.519 168.869C238.514 166.128 238.409 163.383 238.54 160.648C238.702 157.279 240.829 155.008 243.811 155.022C246.986 155.037 249.164 156.728 249.432 159.877C249.969 166.203 250.018 172.569 249.4 178.894C249.083 182.13 246.84 183.678 243.667 183.509C240.44 183.338 238.663 181.429 238.549 178.21C238.438 175.1 238.525 171.983 238.519 168.869V168.869Z" fill="black"/>
<path d="M199.946 356.942C198.609 352.976 195.509 350.19 193.145 346.924C190.77 343.641 188.626 340.154 185.631 337.349C184.095 334.066 181.599 331.46 179.424 328.635C177.396 326.002 177.366 323.74 180.178 321.664C184.264 318.649 188.334 315.613 192.373 312.537C194.501 310.916 196.206 311.323 197.781 313.337C200.216 316.451 202.701 319.528 205.165 322.621C208.041 324.542 209.532 327.639 211.53 330.281C214.438 334.124 217.731 337.703 219.976 342.025C221.249 345.632 224.102 348.179 226.228 351.205C228.046 353.79 227.867 355.651 225.306 357.5C221.379 360.336 217.511 363.256 213.677 366.218C210.922 368.346 208.867 367.837 206.776 365.123C204.613 362.315 203.099 358.93 199.946 356.942V356.942Z" fill="#FF595E"/>
<path d="M219.976 342.025C214.289 336.129 209.834 329.293 205.165 322.62C215.601 314.919 226.037 307.217 236.474 299.516C241.094 308.235 248.093 313.09 258.203 312.893C251.222 319.083 243.376 324.145 236.035 329.866C230.739 333.992 225.333 337.977 219.976 342.025V342.025Z" fill="black"/>
<path d="M331.536 341.264C318.776 344.28 306.53 348.694 294.887 354.748C292.89 348.011 290.893 341.275 288.897 334.539C295.474 328.196 302.238 322.075 310.16 317.413C314.616 314.791 319.109 312.217 324.049 310.562C328.237 320.383 330.477 330.679 331.536 341.264V341.264Z" fill="#CED4DA"/>
<path d="M143.458 384.312L177.609 358.577C179.238 357.35 181.378 357.034 183.292 357.738L193.488 361.49L150.61 393.802L143.458 384.312Z" fill="#CED4DA"/>
</g>
<defs>
<clipPath id="clip0_133_532">
<rect width="384" height="384" fill="white"/>
</clipPath>
</defs>
</svg>
